<?xml version="1.0" encoding="UTF-8" standalone="no"?>
<!-- Generator: Adobe Illustrator 23.0.2, SVG Export Plug-In . SVG Version: 6.00 Build 0)  -->

<svg
   version="1.1"
   id="Capa_1"
   x="0px"
   y="0px"
   viewBox="0 0 2851.905 720"
   xml:space="preserve"
   sodipodi:docname="logo_conabio_vb.svg"
   width="2851.905"
   height="720"
   inkscape:version="1.1 (c68e22c387, 2021-05-23)"
   xmlns:inkscape="http://www.inkscape.org/namespaces/inkscape"
   xmlns:sodipodi="http://sodipodi.sourceforge.net/DTD/sodipodi-0.dtd"
   xmlns="http://www.w3.org/2000/svg"
   xmlns:svg="http://www.w3.org/2000/svg"><defs
   id="defs49" /><sodipodi:namedview
   id="namedview47"
   pagecolor="#ffffff"
   bordercolor="#666666"
   borderopacity="1.0"
   inkscape:pageshadow="2"
   inkscape:pageopacity="0.0"
   inkscape:pagecheckerboard="0"
   showgrid="false"
   fit-margin-top="0"
   fit-margin-left="0"
   fit-margin-right="0"
   fit-margin-bottom="0"
   inkscape:zoom="0.2616762"
   inkscape:cx="1064.2924"
   inkscape:cy="613.35345"
   inkscape:window-width="1920"
   inkscape:window-height="1017"
   inkscape:window-x="1912"
   inkscape:window-y="-8"
   inkscape:window-maximized="1"
   inkscape:current-layer="Capa_1" />
<style
   type="text/css"
   id="style2">
	.st0{fill:#FFFFFF;}
	.st1{fill-rule:evenodd;clip-rule:evenodd;fill:#FFFFFF;}
</style>
<g
   id="g44"
   style="fill:#851215;fill-opacity:1"
   transform="matrix(3.9636831,0,0,3.9636831,-721.83484,-76.80287)">
	<g
   id="g18"
   style="fill:#851215;fill-opacity:1">
		<path
   class="st0"
   d="m 432.82101,135.60127 c 0.8,-2.8 2.1,-7.00001 3.4,-12.80001 1.9,0 7.90001,0.2 9.70001,0.4 0.3,4 0.4,11.10001 0.4,14.90001 l -1.5,2.9 c -5.90001,3.9 -15.30001,7.1 -26.10001,7.1 -22.90001,0 -37.20001,-14.1 -37.20001,-37.00001 0,-23.300007 18,-38.900011 39.50001,-38.900011 9.6,0 17.8,2.600001 24.60001,6.100002 l 1.6,2.8 c -0.9,5.400002 -2.4,12.900004 -3.4,18.100005 -2,0 -6.80001,-0.1 -9.00001,-0.4 -0.8,-6.200002 -2,-11.400003 -2.9,-14.000004 -2.9,-1.9 -7.3,-3.300001 -12.8,-3.300001 -5.6,0 -10.4,1.600001 -13.8,3.800001 -4.80001,5.600002 -8.10001,14.600004 -8.10001,24.800008 0,17 8.80001,28.20001 23.20001,28.20001 5.9,0.1 9.7,-1 12.4,-2.7 z"
   id="path4"
   style="fill:#706f6f;fill-opacity:1" />
		<path
   class="st0"
   d="m 456.62102,112.40126 c 0,-23.900007 17.2,-40.100011 38.10001,-40.100011 20.4,0 34.60001,13.900004 34.60001,35.800011 0,23.50001 -16.00001,40.10001 -37.00001,40.10001 -21.20001,0 -35.70001,-13.9 -35.70001,-35.80001 z m 51.30001,21.90001 c 2.7,-4.20001 5.6,-11.90001 5.6,-23.20001 0,-18.000006 -6.5,-29.600009 -20.9,-29.600009 -5.3,0 -9.8,1.400001 -13.20001,4.000001 -3.9,5.400002 -7.1,13.900004 -7.1,24.900008 0,17.6 8.10001,28.60001 21.90001,28.60001 6,0.1 10.6,-1.8 13.7,-4.7 z"
   id="path6"
   style="fill:#706f6f;fill-opacity:1" />
		<path
   class="st0"
   d="m 592.72105,146.80127 -9.1,-12.9 c -9.1,-12.40001 -20.6,-26.80001 -29.60001,-38.100015 0.1,20.500005 0.6,39.400015 1.7,41.500015 1.1,1.4 7.10001,2.6 11.90001,3.7 l -1.1,5.4 h -30.10001 l -1.1,-5.4 9.2,-2.8 c 0.4,-3.4 0.7,-12.70001 0.7,-27.80001 0,-16.900006 -0.2,-25.700008 -1.2,-27.200008 -1.7,-1.200001 -5.7,-2.800001 -8.9,-3.800001 l 1.1,-5.400002 c 6.6,0 14.5,-0.2 20.7,-0.3 6.50001,11.800003 24.20001,33.600011 38.10001,50.800011 -0.2,-21.7 -0.8,-39.400008 -1.9,-41.400008 -0.9,-1.300001 -6.9,-2.700001 -10.9,-3.700001 l 1.1,-5.400002 h 30.00001 l 1.1,5.400002 -9.3,2.900001 c -0.9,7.700002 -1.3,32.100008 -1.3,63.500018 z"
   id="path8"
   style="fill:#706f6f;fill-opacity:1" />
		<path
   class="st0"
   d="m 647.82107,146.40127 h -30.20001 l -1.1,-5.4 8.8,-3.5 c 6.9,-15.10001 14.40001,-34.30001 21.50001,-52.900018 l 3.4,-10.000002 c 2.6,-0.700001 11.2,-1.900001 15.8,-1.800001 0.8,3.300001 2,7.200002 3.8,11.900003 7.20001,18.400008 15.30001,39.900008 20.90001,53.100018 l 9.5,3.2 -1.1,5.4 h -32.50001 l -1.1,-5.4 9.6,-2.8 c -1.7,-4.6 -3.4,-9.70001 -5.5,-15.50001 l -27.5,0.5 c -1.8,5 -3.3,9.80001 -4.80001,14.40001 l 11.70001,3.4 z m 19.1,-31.40001 c -3.3,-9.2 -7.1,-19.400005 -11.3,-29.800008 -3.7,9.600003 -7.3,19.800008 -10.8,29.500008 z"
   id="path10"
   style="fill:#706f6f;fill-opacity:1" />
		<path
   class="st0"
   d="m 719.92109,138.20127 c 0.3,-2 0.7,-13.30001 0.7,-19.00001 v -18 c 0,-6.200005 -0.1,-16.600008 -1.2,-18.100008 -0.8,-1.300001 -5.40001,-2.800001 -8.70001,-3.700001 l 1.1,-5.400002 h 15.00001 c 3.5,0 14.9,-0.6 19.8,-0.6 16.80001,0 27.00001,6.200002 27.00001,18.700005 0,8.100006 -5.4,13.600006 -11.7,16.800006 8.5,2.2 15.5,7.8 15.5,17.7 0,13.70001 -12.5,20.70001 -27.10001,20.70001 -6.5,0 -15.7,-0.8 -22.8,-0.8 h -15.70001 l -1.1,-5.4 z m 15.1,-32.10001 16.2,0.6 c 3.7,-2.1 7.40001,-6.800004 7.40001,-13.500006 0,-4.300001 -1.2,-7.200001 -2.90001,-9.200002 -2.5,-2.000001 -6.5,-2.900001 -11,-2.900001 -2.6,0 -5.7,0.3 -8.2,0.7 l -0.9,0.300001 c -0.3,2 -0.7,13.300003 -0.7,19.000008 v 5 z m 1.7,31.70001 c 2,1 6.7,1.7 11.1,1.7 2.8,0 6.4,-0.3 9.10001,-1.2 3.2,-2.3 5.5,-6.6 5.5,-11.70001 0,-7.1 -4.6,-11.9 -13.80001,-11.9 h -13.7 v 4.6 c 0,6.2 0.1,16.60001 1.2,18.10001 0.2,0.1 0.4,0.2 0.6,0.4 z"
   id="path12"
   style="fill:#706f6f;fill-opacity:1" />
		<path
   class="st0"
   d="m 796.22111,138.20127 c 0.3,-2 0.7,-13.30001 0.7,-19.00001 v -18 c 0,-6.200005 -0.1,-16.600008 -1.2,-18.100008 -0.80001,-1.300001 -5.40001,-2.800001 -8.70001,-3.700001 l 1.1,-5.400002 h 32.00001 l 1.1,5.400002 -9.2,2.800001 c -0.3,2 -0.7,13.300003 -0.7,19.000008 v 18 c 0,6.2 0.1,16.60001 1.2,18.10001 0.8,1.3 5.4,2.8 8.7,3.7 l -1.1,5.4 H 788.1211 l -1.1,-5.4 z"
   id="path14"
   style="fill:#706f6f;fill-opacity:1" />
		<path
   class="st0"
   d="m 828.92111,112.40126 c 0,-23.900007 17.20001,-40.100011 38.10001,-40.100011 20.40001,0 34.60001,13.900004 34.60001,35.800011 0,23.50001 -16,40.10001 -37.00001,40.10001 -21.2,0 -35.70001,-13.9 -35.70001,-35.80001 z m 51.30002,21.90001 c 2.7,-4.20001 5.6,-11.90001 5.6,-23.20001 0,-18.000006 -6.5,-29.600009 -20.90001,-29.600009 -5.3,0 -9.8,1.400001 -13.2,4.000001 -3.9,5.400002 -7.1,13.900004 -7.1,24.900008 0,17.6 8.1,28.60001 21.9,28.60001 6,0.1 10.60001,-1.8 13.70001,-4.7 z"
   id="path16"
   style="fill:#706f6f;fill-opacity:1" />
	</g>
	<g
   id="g42"
   style="fill:#851215;fill-opacity:1">
		<g
   id="g40"
   style="fill:#851215;fill-opacity:1">
			<path
   class="st1"
   d="m 306.1,49.7 c 1.3,0 2.3,0.9 2.3,2 0,1.1 -1.1,1.9 -2.3,1.9 -1.3,0 -2.3,-0.9 -2.3,-1.9 0,-1.1 1,-2 2.3,-2 m -6,-5.3 c 1.9,-1.1 7.6,-1.2 10.5,-0.2 2.9,1 7,2.5 8.7,3.8 1.6,1.3 6.9,5.9 7.2,7.1 0.3,1.2 0.6,3.3 0,4.5 -0.6,1.2 -1.6,2.4 -2.7,3.4 -1.2,0.9 -6.8,2.8 -8.2,3 -1.4,0.1 -5.6,0.9 -6.9,0.8 -1.4,-0.1 -9.5,-3.8 -10.1,-3.7 -0.6,0.1 -2,3.1 -2,3.1 0,0 -4.5,-2.5 -4.3,-7.9 0.3,-5.5 1.9,-6.8 2.4,-7.6 0.5,-0.7 2,-1.2 2.5,-2.1 0.4,-1.2 1,-3.1 2.9,-4.2 z"
   id="path20"
   style="fill:#851215;fill-opacity:1" />
			<path
   class="st1"
   d="m 323.7,65.5 c 2.1,-1.5 3.6,-3.9 3.9,-3.9 0.3,0 2.7,1.7 4.9,4.2 1.9,2.2 3.6,5 4.9,6.8 2.8,4 7.7,12.4 8.8,17.3 0.6,2.7 1.8,13.3 0.7,22.5 -0.9,6.8 -1.3,13.9 -1.5,14.2 -0.3,0.7 -1.3,3.1 -2.6,2.2 -10,-7 -19.1,-18.2 -24.7,-28.9 -1.4,-2.6 -2.5,-5.1 -3.7,-7.4 -2.3,-4.6 -3.9,-8.8 -5.1,-12.1 -1.6,-4.2 -2.1,-7.1 -2.1,-8 0,-2.1 0.5,-3.5 0.9,-3.7 0.3,-0.1 1,0.1 2.2,0.2 1.3,0.1 2.7,0.1 3.8,0.1 4.7,-0.5 5.7,-0.6 9.6,-3.5"
   id="path22"
   style="fill:#851215;fill-opacity:1" />
			<path
   class="st1"
   d="m 325.5,115.9 c 0.7,-0.3 1.4,1.1 2.4,2.1 1,1 6.7,6.4 7.9,7.8 1.2,1.4 2.5,3 3.2,4.8 0.6,1.8 0.8,3.1 -0.5,9.1 -1.4,6 -7.7,32.3 -11.4,44.3 -3.7,12 -4,14.7 -4.3,15.4 -0.3,0.8 -0.6,1.8 -2.1,1.6 -1.6,-0.1 -2,-0.7 -2.2,-2.5 -0.3,-1.8 -0.6,-8.7 0,-15.1 0.5,-6.3 2.2,-17.4 2.2,-23.8 0,-6.4 -0.9,-9.6 -0.7,-14.1 0.2,-4.5 2.2,-17.7 3.1,-21.7 1,-3.7 1.7,-7.7 2.4,-7.9"
   id="path24"
   style="fill:#851215;fill-opacity:1" />
			<path
   class="st1"
   d="m 280.7,70.9 c 0.1,-2.2 1.4,-2.5 4.1,-2.8 2.8,-0.3 5.2,0.1 6.5,0.6 1.4,0.5 5.8,2.5 6.6,3.1 0.9,0.6 4.2,4 5.7,5.8 1.4,1.9 4.6,5.9 6.1,10.3 1.6,4.3 1.6,6.2 1.6,6.7 -0.1,0.5 -2.6,4.4 -3.9,5.6 -1.3,1.2 -4.7,6.2 -12.8,5.6 -8,-0.6 -11.8,-6.9 -13.9,-8.3 -2,-1.3 -2.4,-2 -4.6,-2.9 -2.2,-0.9 -2.4,-1.7 -2.1,-2.9 0.3,-1.3 1.3,-2.4 3.9,-2.3 2.6,0.1 5.6,0.9 5.6,0.9 0,0 -0.8,-1.3 -2.6,-1.8 -1.8,-0.5 -5.3,-0.7 -7.5,-1.3 -2.2,-0.6 -1.7,-1.9 -1.7,-2.3 0,-0.4 0.1,-2.4 3,-2.7 2.9,-0.3 9.4,-0.4 9.4,-0.4 0,0 -8.5,-1.5 -9.4,-1.8 -1,-0.3 -1.5,-1.1 -1.4,-2.1 0.1,-1 0.4,-2.5 2.4,-2.8 1.9,-0.4 3.4,-0.7 5.4,-0.5 2.1,0.1 7.9,1.2 7.9,1.2 0,0 0.1,-0.8 -2,-1.6 -1.8,-0.9 -6.3,-1.1 -6.3,-3.3"
   id="path26"
   style="fill:#851215;fill-opacity:1" />
			<path
   class="st1"
   d="m 289,111.5 c -0.2,-1.8 0.1,-2.4 0.5,-2.6 0.4,-0.2 6,-1.4 8.2,-1.7 2.1,-0.3 6.7,-0.7 7.4,-1.2 0.7,-0.4 1.7,-0.6 2.9,-1.7 1.1,-1.1 4.2,-4.2 5.6,-4.5 1.3,-0.3 2.3,-0.6 3.4,1.1 1.1,1.6 1.3,2.9 0.8,4.2 -0.5,1.3 -2.7,4.6 -6.9,7 -4.2,2.5 -5.5,2.7 -7.1,2.7 -1.6,0.1 -8.7,0.9 -11.4,0.4 -3,-0.6 -3.2,-1.9 -3.4,-3.7"
   id="path28"
   style="fill:#851215;fill-opacity:1" />
			<path
   class="st1"
   d="m 291.9,117.5 c 2.7,0 11.3,-0.2 12.6,-0.4 1.4,-0.2 4.3,-0.9 6.4,-2.3 2,-1.4 6.6,-4.6 7.3,-4.5 0.6,0.1 2.6,0.7 2.7,2.4 0.1,1.7 0.1,4.5 -3.2,7.8 -3.3,3.2 -9.4,4 -13.1,4.7 -3.7,0.7 -7.1,1.1 -8.4,1 -1.3,-0.1 -6.3,-0.7 -6.6,-2.7 -0.3,-2 -0.5,-6 2.3,-6"
   id="path30"
   style="fill:#851215;fill-opacity:1" />
			<path
   class="st1"
   d="m 318.2,125 c 0.5,-0.2 0.4,9.9 -0.9,15.8 -1.3,6 -5.8,23.8 -6.6,25.1 -0.7,1.4 -6.9,4.5 -8.8,5.4 -1.9,0.9 -6.6,2.5 -6.9,2.5 -0.3,0 -2.6,1.1 -2.5,-1.8 0.1,-2.8 0.6,-16.4 -0.2,-25.8 -0.9,-9.4 -1,-13.3 -1.2,-14.4 -0.1,-1.1 -0.3,-3.1 1.6,-3.2 2,-0.1 7.8,0 12.2,-0.7 4.4,-0.6 12.8,-2.7 13.3,-2.9"
   id="path32"
   style="fill:#851215;fill-opacity:1" />
			<path
   class="st1"
   d="m 232.3,144.4 c 0.2,0 1.2,1.4 1.6,2 0.5,0.6 8.6,11.8 20.2,14.3 11.6,2.5 15.5,-0.4 16.7,-1.8 1.2,-1.4 3.8,-8.5 4.4,-10.4 0.5,-1.9 2,-3.8 4.8,-4.5 1.1,-0.3 2.7,-0.6 4.1,-0.7 2.4,-0.2 4.7,0.3 5.5,0.9 1.3,1.1 1.4,9.9 0.8,14.7 -0.6,4.9 -1.8,14.1 -2.1,14.8 -0.2,0.7 -5,3.1 -15,3.3 -10,0.3 -28,-3 -37.6,-8.1 -9.6,-5.1 -13.5,-8.8 -17.3,-12.6 -3.8,-3.8 -3,-3.4 -2.7,-4.4 0.3,-0.9 1,-2.6 1.6,-2.7 0.6,-0.1 3.7,-0.4 6,-0.9 2.4,-0.5 5.8,-1.2 7,-2.4 1.3,-1.3 1.7,-1.5 2,-1.5"
   id="path34"
   style="fill:#851215;fill-opacity:1" />
			<path
   class="st1"
   d="m 334.9,170.5 c 1,0.6 3.9,-0.9 8.2,-5.2 4.3,-4.3 5.8,-6.6 7.5,-9 1.6,-2.4 9.3,-15.9 12.1,-28.8 2.8,-12.9 2.6,-16.7 2.7,-22.6 C 365.5,99 363,80.8 359.1,71.9 355.2,63 351.6,53 343.7,45.8 335.8,38.6 321.4,28.1 303.9,23.6 c -17.4,-4.5 -22,-4 -27.6,-4.2 -5.5,-0.2 -20.2,0.9 -29.3,2.7 -9.1,1.8 -12,3 -14.5,3.7 -2.5,0.6 -27.3,11.7 -38,29.7 -10.6,18 -12.9,39.9 -12.3,51.2 0.6,11.3 3.4,42.4 19.3,60.3 15.9,17.8 35.3,25.7 66.8,27.3 31.4,1.6 47.5,-11 47.5,-11 l 1.9,-15.4 c 0,0 -21.6,11.8 -45.3,12.3 -23.7,0.4 -45.5,-8.6 -58.7,-23.5 -13.2,-14.9 -17.7,-43.9 -15.6,-64.3 2.1,-20.4 11.1,-41.2 39.3,-51.9 28.2,-10.7 62.2,-2 71.4,0.6 9.3,2.6 35.2,19.5 40.4,50.7 5.2,31.2 -4.9,45.2 -7.3,50.9 -2.4,5.7 -5.7,11.7 -6.4,16.6 -0.5,4.8 -1.5,10.6 -0.6,11.2"
   id="path36"
   style="fill:#851215;fill-opacity:1" />
			<path
   class="st1"
   d="m 218.4,124.6 c 2,-0.2 5.3,1.8 5.4,3.6 0.1,1.8 -0.8,3.9 -3.1,4.3 -2.4,0.4 -6.1,0.5 -7,-1.8 -0.9,-2.3 0,-4.4 1.4,-5.1 1.4,-0.8 1.3,-0.8 3.3,-1 m -0.9,-1.4 c 4.3,0 9.2,3.4 9.2,7.4 0,4 -2.4,6.6 -6.4,6.2 -3.9,-0.3 -9.3,-2.2 -8.9,-7.8 0.4,-5.4 6.1,-5.8 6.1,-5.8 z m 31.8,-20.5 c 2.6,-2.4 7,-1.6 7.3,-1.3 0.1,0.1 -0.1,1.2 -0.8,2.4 -0.6,1.1 -1.7,2.2 -2.8,3.3 -2.4,2.3 -5.9,2.7 -6.4,2.1 -0.7,-0.6 0,-4.1 2.7,-6.5 z m 25.5,7.2 c 0.6,0.5 -0.3,2.2 -0.7,2.4 -0.3,0.2 -1.6,1.4 -2.6,0.5 -1,-0.9 -0.5,-2 1,-2.7 1.4,-0.7 1.8,-0.7 2.3,-0.2 z m -7.4,-71.7 c 1.7,0 4.8,7 5.3,11.1 0.5,4.1 1.6,10.1 -1.3,18 -2.8,7.8 -7.3,14 -8.7,14.2 -1.4,0.2 -2.8,0.4 -2.8,0.4 0,0 -5.7,-4.8 -12,-4.3 -6.3,0.5 -10.8,2.5 -16.2,7.1 -5.4,4.7 -7.8,9.4 -8.4,12.9 -0.6,3.6 -0.4,9.6 1,12.7 1.4,3.2 2,2.7 2,2.7 0,0 1,0.3 1.2,-0.1 0.2,-0.4 -3,-9.8 -1,-15.7 2,-5.9 4.4,-11.1 15,-15.6 9.6,-4.1 13.8,1.9 16.5,3.8 2.5,1.8 4.7,3.2 6.4,4.3 1.7,1.1 11.3,7.5 15.3,12.2 4.1,4.7 4.5,5 4.1,6.7 -0.5,1.7 -2.8,3.7 -2.7,5 0.1,1.2 2.2,4.2 1.2,6 -0.9,1.9 -1.7,2.6 -4.2,3.9 -2.6,1.3 -3.6,3 -3.6,3.4 0,0.4 1.2,0.3 2.2,-0.1 1,-0.3 1.9,-1.2 3.8,-0.9 1.9,0.2 4.2,0.5 4.9,4.9 0.8,4.4 0.8,6.6 -0.8,8.5 -1.5,2 -3.5,2.1 -5.5,2.9 -1.9,0.7 -4,0.8 -4.8,1.8 -0.9,1 -2.8,4.8 -3.6,8.6 -0.7,3.7 -2.4,5.6 -3,6 -0.5,0.4 -11.1,0.9 -16.1,-1.1 -5.1,-1.9 -7.4,-3.8 -11.9,-8.2 -4.4,-4.4 -6.3,-7.1 -6.3,-7.1 h -2 c 0,0 -4.6,5 -10.8,4 -6.2,-1 -16.6,-4.8 -16.5,-17.5 0.1,-12.7 8.7,-13.9 9.1,-14.7 0.4,-0.8 0.6,-2 -1.2,-1.9 -1.8,0.1 -4.5,0.9 -6.2,2 -1.7,1.1 -4.9,3.6 -5.1,1.3 -0.3,-2.3 0.4,-8.6 6.5,-11.6 6,-3 7.4,-2.4 7.3,-4.6 -0.1,-2.2 -4.7,-1.3 -6.1,-0.7 -1.4,0.6 -4.9,2.3 -5.2,2.7 -0.3,0.4 -2.6,2.1 -2.6,-0.4 0,-2.6 0.9,-7.7 6,-10.7 5.1,-3 10.4,-1.7 10.6,-3.6 0.1,-1.9 -2.1,-2.5 -4.1,-2.3 -2,0.2 -7.4,2 -8.5,2.8 -1,0.9 -2.8,1 -2.3,-1.5 0.4,-2.6 2.8,-8.8 9.1,-10.5 6.2,-1.8 11.2,1.5 11.8,0.4 0.6,-1.1 0.1,-3.2 -2.5,-4.4 -2.6,-1.1 -4.3,-1.7 -8.1,-0.5 -3.8,1.2 -4.6,0.6 -4,-0.9 0.6,-1.4 2.6,-8.9 11.5,-8.9 8.9,0 11.2,8.2 13.3,7.7 2.1,-0.6 -0.8,-7.3 -2.6,-10.1 -1.7,-2.8 -7.8,-7.1 -5.5,-8.8 2.2,-1.7 7.8,-1 11.3,1.2 3.5,2.2 3.5,2.7 4.4,4 0.9,1.3 4.3,9 5.1,8.7 0.7,-0.3 1.1,-4.8 0.4,-8.1 -0.6,-3.3 -4.9,-10.4 -6.2,-11.6 -1.3,-1.2 -1,-2.3 1.3,-2.4 2.3,-0.2 8.8,0.6 12.4,5.1 3.6,4.5 3.8,12.4 3.3,13.4 -0.4,1.1 -0.2,4 1.3,2.3 1.6,-1.8 5,-7.3 5.8,-12.8 1.1,-5.6 1.3,-11 3,-11.1 z"
   id="path38"
   style="fill:#851215;fill-opacity:1" />
		</g>
	</g>
</g>
</svg>
