<?xml version="1.0" encoding="utf-8"?>
<svg version="1.1" id="Artboard_1" xmlns="http://www.w3.org/2000/svg" xmlns:xlink="http://www.w3.org/1999/xlink" x="0px" y="0px" viewBox="0 0 296 90" style="enable-background:new 0 0 296 90;" xml:space="preserve">
<style type="text/css">
	.st0{opacity:1.00;fill:#222222;display:none;}
	.st1{opacity:1.00;fill-rule:evenodd;clip-rule:evenodd;fill:#FFFFFF;fill-opacity:0.60;}
	.st2{opacity:1.00;fill-rule:evenodd;clip-rule:evenodd;fill:#FFFFFF;}
	.st3{opacity:1.00;fill-rule:evenodd;clip-rule:evenodd;fill:#FFFFFF;fill-opacity:0.10;display:none;}
	.st4{opacity:1.00;fill-rule:evenodd;clip-rule:evenodd;fill:#FFFFFF;fill-opacity:0.40;}
</style>
<rect id="fondo-color" x="-5" y="-5" class="st0" width="306" height="100"/>
<path id="aniversario" class="st1" d="M150.837,84.214h1.977l-4.612-10.88h-2.137l-4.612,10.88h1.88l1.077-2.62h5.335
	L150.837,84.214L150.837,84.214z M145.051,80.02l1.993-4.869h0.032l2.025,4.869H145.051L145.051,80.02z M166.086,84.214h1.864
	v-5.255c0-2.009-1.125-3.037-3.069-3.037c-1.286,0-2.411,0.466-3.295,1.173h-0.032v-1.012h-1.704v8.132h1.848v-6.155
	c0.659-0.45,1.511-0.707,2.33-0.707c1.366,0,2.057,0.579,2.057,1.816V84.214L166.086,84.214z M177.897,74.684v-1.848h-1.848v1.848
	H177.897L177.897,74.684z M176.049,84.214h1.848v-8.132h-1.848V84.214L176.049,84.214z M188.357,84.214h2.041l3.439-8.132h-1.768
	l-2.636,6.444h-0.032l-2.636-6.444h-1.864L188.357,84.214L188.357,84.214z M204.282,75.922c-2.571,0-4.227,1.671-4.227,4.243
	c0,2.684,1.704,4.275,4.628,4.275c1.045,0,2.234-0.225,3.102-0.579v-1.35c-1.077,0.37-1.961,0.562-2.78,0.562
	c-1.993,0-3.053-0.836-3.07-2.411h6.139v-0.804C208.074,77.384,206.676,75.922,204.282,75.922L204.282,75.922z M204.33,77.304
	c1.286,0,2.041,0.771,2.041,2.137h-4.436C201.983,78.14,202.916,77.304,204.33,77.304L204.33,77.304z M220.704,77.625v-1.704
	c-1.237,0-2.186,0.45-3.375,1.623h-0.048v-1.462h-1.704v8.132h1.848V78.67C218.39,77.995,219.563,77.625,220.704,77.625
	L220.704,77.625z M233.27,81.965c0-2.845-4.194-2.121-4.194-3.696c0-0.755,0.643-1.061,1.591-1.061c0.771,0,1.527,0.161,2.153,0.45
	v-1.366c-0.498-0.177-1.334-0.37-2.282-0.37c-1.912,0-3.278,0.723-3.278,2.378c0,2.925,4.162,2.137,4.162,3.712
	c0,0.884-0.755,1.141-1.655,1.141c-0.964,0-1.8-0.225-2.571-0.514v1.366c0.836,0.321,1.864,0.434,2.62,0.434
	C231.727,84.439,233.27,83.732,233.27,81.965L233.27,81.965z M247.619,82.64v-3.728c0-2.105-1.061-2.989-3.6-2.989
	c-0.98,0-2.009,0.129-3.021,0.386l-0.016,1.334c1.029-0.225,1.945-0.321,2.684-0.321c1.495,0,2.105,0.466,2.105,1.559v0.434h-2.186
	c-2.314,0-3.6,0.948-3.6,2.668c0,1.543,1.093,2.427,3.021,2.427c1.205,0,2.218-0.337,2.957-1.012
	c0.193,0.723,0.691,1.012,1.543,1.012c0.386,0,0.739-0.08,1.157-0.209v-1.077c-0.241,0.032-0.321,0.032-0.418,0.032
	C247.861,83.154,247.619,83.009,247.619,82.64L247.619,82.64z M241.85,81.82c0-0.932,0.707-1.414,2.137-1.414h1.784v2.025
	c-0.611,0.418-1.334,0.611-2.17,0.611C242.412,83.041,241.85,82.607,241.85,81.82L241.85,81.82z M261.133,77.625v-1.704
	c-1.237,0-2.186,0.45-3.375,1.623h-0.048v-1.462h-1.704v8.132h1.848V78.67C258.819,77.995,259.992,77.625,261.133,77.625
	L261.133,77.625z M270.115,74.684v-1.848h-1.848v1.848H270.115L270.115,74.684z M268.267,84.214h1.848v-8.132h-1.848V84.214
	L268.267,84.214z M286.972,80.229c0-2.603-1.864-4.307-4.693-4.307c-2.748,0-4.644,1.72-4.644,4.243
	c0,2.539,1.848,4.275,4.564,4.275C284.979,84.439,286.972,82.704,286.972,80.229L286.972,80.229z M285.027,80.213
	c0,1.687-1.109,2.828-2.732,2.828c-1.655,0-2.748-1.125-2.748-2.893c0-1.736,1.125-2.828,2.748-2.828
	C283.934,77.32,285.027,78.445,285.027,80.213z"/>
<path id="nombre" class="st2" d="M137.57,58.055v-0.849c-0.432-0.134-0.939-0.227-1.558-0.227c-1.536,0-2.908,0.925-2.908,2.992
	c0,1.698,0.91,2.933,3.005,2.933c0.641,0,1.156-0.092,1.581-0.227v-0.824c-0.537,0.177-0.947,0.235-1.432,0.235
	c-1.544,0-2.215-0.891-2.215-2.152c0-1.328,0.82-2.143,2.155-2.143C136.683,57.794,137.138,57.903,137.57,58.055L137.57,58.055z
	 M139.576,57.802v-0.967h-0.857v0.967H139.576L139.576,57.802z M138.719,62.787h0.857v-4.253h-0.857V62.787L138.719,62.787z
	 M142.656,58.45c-1.193,0-1.961,0.874-1.961,2.219c0,1.404,0.79,2.236,2.147,2.236c0.485,0,1.036-0.118,1.439-0.303v-0.706
	c-0.5,0.193-0.91,0.294-1.29,0.294c-0.925,0-1.417-0.437-1.424-1.261h2.848v-0.42C144.415,59.214,143.767,58.45,142.656,58.45
	L142.656,58.45z M142.678,59.172c0.597,0,0.947,0.403,0.947,1.118h-2.058C141.589,59.61,142.022,59.172,142.678,59.172
	L142.678,59.172z M148.419,62.787h0.865v-2.749c0-1.051-0.522-1.589-1.424-1.589c-0.596,0-1.118,0.244-1.529,0.614h-0.015v-0.53
	h-0.79v4.253h0.858v-3.219c0.306-0.235,0.701-0.37,1.081-0.37c0.634,0,0.954,0.303,0.954,0.95V62.787L148.419,62.787z
	 M153.803,62.678v-0.74c-0.38,0.151-0.753,0.227-1.119,0.227c-0.917,0-1.409-0.521-1.417-1.496
	c-0.007-0.983,0.485-1.479,1.439-1.479c0.336,0,0.649,0.05,0.992,0.168v-0.757c-0.358-0.093-0.723-0.151-1.029-0.151
	c-1.461,0-2.297,0.824-2.297,2.253c0,1.378,0.805,2.202,2.162,2.202C152.968,62.904,153.393,62.829,153.803,62.678L153.803,62.678z
	 M155.689,57.802v-0.967h-0.858v0.967H155.689L155.689,57.802z M154.832,62.787h0.858v-4.253h-0.858V62.787L154.832,62.787z
	 M160.327,61.963v-1.95c0-1.101-0.492-1.563-1.67-1.563c-0.455,0-0.932,0.067-1.402,0.202l-0.007,0.698
	c0.477-0.118,0.902-0.168,1.245-0.168c0.693,0,0.977,0.244,0.977,0.815v0.227h-1.014c-1.074,0-1.67,0.496-1.67,1.395
	c0,0.807,0.507,1.269,1.402,1.269c0.559,0,1.029-0.177,1.372-0.529c0.089,0.378,0.321,0.529,0.716,0.529
	c0.179,0,0.343-0.042,0.537-0.109v-0.563c-0.112,0.017-0.149,0.017-0.194,0.017C160.439,62.232,160.327,62.156,160.327,61.963
	L160.327,61.963z M157.651,61.534c0-0.488,0.328-0.74,0.992-0.74h0.828v1.059c-0.283,0.219-0.619,0.319-1.007,0.319
	C157.912,62.173,157.651,61.946,157.651,61.534L157.651,61.534z M164.369,61.61c0-1.488-1.946-1.11-1.946-1.933
	c0-0.395,0.298-0.555,0.738-0.555c0.358,0,0.708,0.084,0.999,0.235v-0.714c-0.231-0.092-0.619-0.193-1.059-0.193
	c-0.887,0-1.521,0.378-1.521,1.244c0,1.53,1.931,1.118,1.931,1.942c0,0.462-0.35,0.597-0.768,0.597
	c-0.447,0-0.835-0.118-1.193-0.269v0.714c0.388,0.168,0.865,0.227,1.215,0.227C163.653,62.904,164.369,62.535,164.369,61.61
	L164.369,61.61z M167.292,60.719c0,1.353,0.671,2.177,1.79,2.177c0.5,0,0.992-0.219,1.402-0.614h0.008v0.504h0.798v-6.111h-0.858
	v2.236h-0.015c-0.365-0.319-0.746-0.462-1.223-0.462C168.008,58.45,167.292,59.307,167.292,60.719L167.292,60.719z M168.179,60.711
	c0-0.941,0.47-1.538,1.201-1.538c0.365,0,0.701,0.118,1.051,0.387v2.202c-0.291,0.252-0.686,0.403-1.066,0.403
	C168.619,62.165,168.179,61.627,168.179,60.711L168.179,60.711z M174.368,58.45c-1.193,0-1.961,0.874-1.961,2.219
	c0,1.404,0.79,2.236,2.148,2.236c0.485,0,1.036-0.118,1.439-0.303v-0.706c-0.5,0.193-0.91,0.294-1.29,0.294
	c-0.925,0-1.417-0.437-1.424-1.261h2.848v-0.42C176.128,59.214,175.479,58.45,174.368,58.45L174.368,58.45z M174.39,59.172
	c0.597,0,0.947,0.403,0.947,1.118h-2.058C173.302,59.61,173.734,59.172,174.39,59.172L174.39,59.172z M179.476,57.096v5.69h0.895
	v-5.69H179.476L179.476,57.096z M184.755,62.787h0.865v-2.749c0-1.051-0.522-1.589-1.424-1.589c-0.597,0-1.118,0.244-1.529,0.614
	h-0.015v-0.53h-0.79v4.253h0.857v-3.219c0.306-0.235,0.701-0.37,1.081-0.37c0.634,0,0.954,0.303,0.954,0.95V62.787L184.755,62.787z
	 M187.26,58.534h-0.746v0.681h0.746v3.572h0.865v-3.572h1.104v-0.681h-1.104V58.13c0-0.538,0.246-0.832,0.775-0.832
	c0.171,0,0.343,0.025,0.567,0.084v-0.731c-0.224-0.059-0.477-0.092-0.716-0.092c-0.977,0-1.491,0.504-1.491,1.521V58.534
	L187.26,58.534z M194.031,60.702c0-1.362-0.865-2.253-2.177-2.253c-1.275,0-2.155,0.899-2.155,2.219
	c0,1.328,0.857,2.236,2.118,2.236C193.106,62.904,194.031,61.997,194.031,60.702L194.031,60.702z M193.128,60.694
	c0,0.883-0.514,1.479-1.268,1.479c-0.768,0-1.275-0.588-1.275-1.513c0-0.908,0.522-1.479,1.275-1.479
	C192.621,59.181,193.128,59.769,193.128,60.694L193.128,60.694z M197.52,59.341V58.45c-0.574,0-1.014,0.235-1.566,0.849h-0.022
	v-0.765h-0.79v4.253h0.857v-2.9C196.447,59.534,196.991,59.341,197.52,59.341L197.52,59.341z M203.441,58.45
	c-0.544,0-1.036,0.227-1.491,0.681c-0.224-0.437-0.671-0.681-1.275-0.681c-0.477,0-0.962,0.21-1.409,0.614h-0.015v-0.53h-0.79v4.253
	h0.858v-3.219c0.298-0.244,0.649-0.37,0.999-0.37c0.619,0,0.917,0.328,0.917,1.009v2.58h0.857v-2.984c0-0.084-0.015-0.16-0.03-0.227
	c0.283-0.235,0.656-0.378,1.022-0.378c0.626,0,0.917,0.353,0.917,1.009v2.58h0.857v-2.749
	C204.857,58.988,204.373,58.45,203.441,58.45L203.441,58.45z M209.466,61.963v-1.95c0-1.101-0.492-1.563-1.67-1.563
	c-0.455,0-0.932,0.067-1.402,0.202l-0.007,0.698c0.477-0.118,0.902-0.168,1.245-0.168c0.693,0,0.977,0.244,0.977,0.815v0.227h-1.014
	c-1.074,0-1.67,0.496-1.67,1.395c0,0.807,0.507,1.269,1.402,1.269c0.559,0,1.029-0.177,1.372-0.529
	c0.089,0.378,0.321,0.529,0.716,0.529c0.179,0,0.343-0.042,0.537-0.109v-0.563c-0.112,0.017-0.149,0.017-0.194,0.017
	C209.577,62.232,209.466,62.156,209.466,61.963L209.466,61.963z M206.789,61.534c0-0.488,0.328-0.74,0.992-0.74h0.828v1.059
	c-0.283,0.219-0.619,0.319-1.007,0.319C207.05,62.173,206.789,61.946,206.789,61.534L206.789,61.534z M214.118,62.678v-0.74
	c-0.38,0.151-0.753,0.227-1.119,0.227c-0.917,0-1.409-0.521-1.417-1.496c-0.008-0.983,0.485-1.479,1.439-1.479
	c0.336,0,0.649,0.05,0.992,0.168v-0.757c-0.358-0.093-0.723-0.151-1.029-0.151c-1.462,0-2.297,0.824-2.297,2.253
	c0,1.378,0.805,2.202,2.162,2.202C213.283,62.904,213.708,62.829,214.118,62.678L214.118,62.678z M216.005,57.802v-0.967h-0.857
	v0.967H216.005L216.005,57.802z M215.147,62.787h0.857v-4.253h-0.857V62.787L215.147,62.787z M219.457,56.483l-0.634,1.463h0.582
	l0.992-1.463H219.457L219.457,56.483z M221.456,60.702c0-1.362-0.865-2.253-2.177-2.253c-1.275,0-2.155,0.899-2.155,2.219
	c0,1.328,0.857,2.236,2.118,2.236C220.531,62.904,221.456,61.997,221.456,60.702L221.456,60.702z M220.553,60.694
	c0,0.883-0.514,1.479-1.268,1.479c-0.768,0-1.275-0.588-1.275-1.513c0-0.908,0.522-1.479,1.275-1.479
	C220.046,59.181,220.553,59.769,220.553,60.694L220.553,60.694z M225.46,62.787h0.865v-2.749c0-1.051-0.522-1.589-1.424-1.589
	c-0.597,0-1.118,0.244-1.529,0.614h-0.015v-0.53h-0.79v4.253h0.857v-3.219c0.306-0.235,0.701-0.37,1.081-0.37
	c0.634,0,0.954,0.303,0.954,0.95V62.787L225.46,62.787z M234.206,58.122v-0.841c-0.403-0.176-0.865-0.303-1.536-0.303
	c-1.864,0-3.042,1.059-3.042,3.018c0,2.085,1.283,2.908,2.841,2.908c0.79,0,1.447-0.143,1.961-0.37v-2.74h-0.887v2.202
	c-0.253,0.059-0.559,0.101-0.977,0.101c-1.223,0-2.013-0.672-2.013-2.152c0-1.32,0.701-2.152,2.244-2.152
	C233.364,57.794,233.833,57.954,234.206,58.122L234.206,58.122z M237.442,58.45c-1.193,0-1.961,0.874-1.961,2.219
	c0,1.404,0.79,2.236,2.147,2.236c0.485,0,1.037-0.118,1.439-0.303v-0.706c-0.5,0.193-0.91,0.294-1.29,0.294
	c-0.925,0-1.417-0.437-1.424-1.261h2.848v-0.42C239.202,59.214,238.553,58.45,237.442,58.45L237.442,58.45z M237.465,59.172
	c0.597,0,0.947,0.403,0.947,1.118h-2.058C236.376,59.61,236.809,59.172,237.465,59.172L237.465,59.172z M244.369,60.702
	c0-1.362-0.865-2.253-2.177-2.253c-1.275,0-2.155,0.899-2.155,2.219c0,1.328,0.857,2.236,2.118,2.236
	C243.445,62.904,244.369,61.997,244.369,60.702L244.369,60.702z M243.467,60.694c0,0.883-0.514,1.479-1.268,1.479
	c-0.768,0-1.275-0.588-1.275-1.513c0-0.908,0.522-1.479,1.275-1.479C242.96,59.181,243.467,59.769,243.467,60.694L243.467,60.694z
	 M247.166,58.45c-1.193,0-1.961,0.874-1.961,2.219c0,1.404,0.79,2.236,2.147,2.236c0.485,0,1.037-0.118,1.439-0.303v-0.706
	c-0.5,0.193-0.91,0.294-1.29,0.294c-0.925,0-1.417-0.437-1.424-1.261h2.848v-0.42C248.925,59.214,248.277,58.45,247.166,58.45
	L247.166,58.45z M247.188,59.172c0.597,0,0.947,0.403,0.947,1.118h-2.058C246.099,59.61,246.532,59.172,247.188,59.172
	L247.188,59.172z M252.557,61.61c0-1.488-1.946-1.11-1.946-1.933c0-0.395,0.298-0.555,0.738-0.555c0.358,0,0.708,0.084,0.999,0.235
	v-0.714c-0.231-0.092-0.619-0.193-1.059-0.193c-0.887,0-1.521,0.378-1.521,1.244c0,1.53,1.931,1.118,1.931,1.942
	c0,0.462-0.35,0.597-0.768,0.597c-0.447,0-0.835-0.118-1.193-0.269v0.714c0.388,0.168,0.865,0.227,1.215,0.227
	C251.841,62.904,252.557,62.535,252.557,61.61L252.557,61.61z M254.421,58.534h-0.798v5.976h0.857v-2.043h0.022
	c0.373,0.286,0.79,0.429,1.215,0.429c1.163,0,1.909-0.908,1.909-2.328c0-1.311-0.686-2.118-1.797-2.118
	c-0.529,0-1.007,0.219-1.402,0.622h-0.007V58.534L254.421,58.534z M256.732,60.585c0,1-0.44,1.58-1.186,1.58
	c-0.365,0-0.723-0.126-1.066-0.361v-2.261c0.313-0.244,0.664-0.37,1.066-0.37C256.27,59.172,256.732,59.727,256.732,60.585
	L256.732,60.585z M261.959,61.963v-1.95c0-1.101-0.492-1.563-1.67-1.563c-0.455,0-0.932,0.067-1.402,0.202l-0.007,0.698
	c0.477-0.118,0.902-0.168,1.245-0.168c0.693,0,0.977,0.244,0.977,0.815v0.227h-1.014c-1.074,0-1.67,0.496-1.67,1.395
	c0,0.807,0.507,1.269,1.402,1.269c0.559,0,1.029-0.177,1.372-0.529c0.09,0.378,0.321,0.529,0.716,0.529
	c0.179,0,0.343-0.042,0.537-0.109v-0.563c-0.112,0.017-0.149,0.017-0.194,0.017C262.071,62.232,261.959,62.156,261.959,61.963
	L261.959,61.963z M259.282,61.534c0-0.488,0.328-0.74,0.992-0.74h0.828v1.059c-0.283,0.219-0.619,0.319-1.007,0.319
	C259.543,62.173,259.282,61.946,259.282,61.534L259.282,61.534z M266.612,62.678v-0.74c-0.38,0.151-0.753,0.227-1.119,0.227
	c-0.917,0-1.409-0.521-1.417-1.496c-0.008-0.983,0.485-1.479,1.439-1.479c0.336,0,0.649,0.05,0.992,0.168v-0.757
	c-0.358-0.093-0.723-0.151-1.029-0.151c-1.462,0-2.297,0.824-2.297,2.253c0,1.378,0.805,2.202,2.162,2.202
	C265.777,62.904,266.202,62.829,266.612,62.678L266.612,62.678z M268.499,57.802v-0.967h-0.857v0.967H268.499L268.499,57.802z
	 M267.641,62.787h0.857v-4.253h-0.857V62.787L267.641,62.787z M273.137,61.963v-1.95c0-1.101-0.492-1.563-1.67-1.563
	c-0.455,0-0.932,0.067-1.402,0.202l-0.007,0.698c0.477-0.118,0.902-0.168,1.245-0.168c0.693,0,0.977,0.244,0.977,0.815v0.227h-1.014
	c-1.074,0-1.67,0.496-1.67,1.395c0,0.807,0.507,1.269,1.402,1.269c0.559,0,1.029-0.177,1.372-0.529
	c0.089,0.378,0.321,0.529,0.716,0.529c0.179,0,0.343-0.042,0.537-0.109v-0.563c-0.112,0.017-0.149,0.017-0.194,0.017
	C273.248,62.232,273.137,62.156,273.137,61.963L273.137,61.963z M270.46,61.534c0-0.488,0.328-0.74,0.992-0.74h0.828v1.059
	c-0.283,0.219-0.619,0.319-1.007,0.319C270.721,62.173,270.46,61.946,270.46,61.534L270.46,61.534z M274.605,56.676v5.329
	c0,0.479,0.254,0.874,0.932,0.874c0.194,0,0.433-0.025,0.664-0.109v-0.656c-0.112,0.034-0.224,0.042-0.313,0.042
	c-0.239,0-0.425-0.059-0.425-0.395v-5.085H274.605L274.605,56.676z M278.035,61.576h-0.984l-0.261,2.337l0.544,0.076L278.035,61.576
	L278.035,61.576z M285.194,62.787h0.917l-2.14-5.69h-0.992l-2.14,5.69h0.872l0.5-1.37h2.476L285.194,62.787L285.194,62.787z
	 M282.509,60.593l0.925-2.547h0.015l0.94,2.547H282.509L282.509,60.593z M287.841,62.787v-1.21h-0.984v1.21H287.841L287.841,62.787z
	 M293.336,58.055v-0.849c-0.432-0.134-0.939-0.227-1.558-0.227c-1.536,0-2.908,0.925-2.908,2.992c0,1.698,0.91,2.933,3.005,2.933
	c0.641,0,1.156-0.092,1.581-0.227v-0.824c-0.537,0.177-0.947,0.235-1.432,0.235c-1.543,0-2.215-0.891-2.215-2.152
	c0-1.328,0.82-2.143,2.155-2.143C292.449,57.794,292.904,57.903,293.336,58.055L293.336,58.055z M295.32,62.787v-1.21h-0.984v1.21
	H295.32L295.32,62.787z M166.677,47.983v-0.849c-0.432-0.134-0.94-0.227-1.558-0.227c-1.536,0-2.908,0.925-2.908,2.992
	c0,1.698,0.91,2.934,3.005,2.934c0.641,0,1.156-0.092,1.581-0.227v-0.824c-0.537,0.176-0.947,0.235-1.432,0.235
	c-1.543,0-2.215-0.891-2.215-2.152c0-1.328,0.82-2.143,2.155-2.143C165.789,47.723,166.244,47.832,166.677,47.983L166.677,47.983z
	 M169.488,48.379c-1.193,0-1.961,0.874-1.961,2.219c0,1.404,0.79,2.236,2.147,2.236c0.485,0,1.036-0.118,1.439-0.303v-0.706
	c-0.5,0.193-0.91,0.294-1.29,0.294c-0.925,0-1.417-0.437-1.424-1.261h2.848v-0.42C171.247,49.143,170.599,48.379,169.488,48.379
	L169.488,48.379z M169.51,49.101c0.596,0,0.947,0.404,0.947,1.118h-2.058C168.421,49.539,168.854,49.101,169.51,49.101
	L169.51,49.101z M175.251,52.716h0.865v-2.749c0-1.051-0.522-1.589-1.424-1.589c-0.597,0-1.118,0.244-1.529,0.614h-0.015v-0.53
	h-0.79v4.253h0.858v-3.219c0.306-0.235,0.701-0.37,1.081-0.37c0.634,0,0.954,0.303,0.954,0.95V52.716L175.251,52.716z
	 M178.547,51.547v-2.404h1.387v-0.681h-1.387v-1.168h-0.865v1.168h-0.761v0.681h0.761v2.387c0,0.857,0.447,1.303,1.275,1.303
	c0.298,0,0.671-0.05,0.917-0.118v-0.723c-0.261,0.076-0.485,0.109-0.679,0.109C178.756,52.102,178.547,51.934,178.547,51.547
	L178.547,51.547z M183.342,49.27v-0.891c-0.574,0-1.014,0.235-1.566,0.849h-0.022v-0.765h-0.79v4.253h0.858v-2.9
	C182.268,49.463,182.812,49.27,183.342,49.27L183.342,49.27z M188.203,50.631c0-1.362-0.865-2.253-2.177-2.253
	c-1.275,0-2.155,0.899-2.155,2.219c0,1.328,0.858,2.236,2.118,2.236C187.279,52.833,188.203,51.926,188.203,50.631L188.203,50.631z
	 M187.301,50.623c0,0.883-0.515,1.479-1.268,1.479c-0.768,0-1.275-0.588-1.275-1.513c0-0.908,0.522-1.479,1.275-1.479
	C186.794,49.11,187.301,49.698,187.301,50.623L187.301,50.623z M191.171,50.648c0,1.353,0.671,2.177,1.79,2.177
	c0.5,0,0.992-0.219,1.402-0.614h0.008v0.504h0.798v-6.111h-0.858v2.236h-0.015c-0.365-0.319-0.746-0.462-1.223-0.462
	C191.887,48.379,191.171,49.236,191.171,50.648L191.171,50.648z M192.058,50.64c0-0.941,0.47-1.538,1.201-1.538
	c0.365,0,0.701,0.118,1.051,0.387v2.202c-0.291,0.252-0.686,0.403-1.066,0.403C192.498,52.094,192.058,51.556,192.058,50.64
	L192.058,50.64z M198.247,48.379c-1.193,0-1.961,0.874-1.961,2.219c0,1.404,0.79,2.236,2.147,2.236c0.485,0,1.036-0.118,1.439-0.303
	v-0.706c-0.5,0.193-0.91,0.294-1.29,0.294c-0.925,0-1.417-0.437-1.424-1.261h2.848v-0.42
	C200.007,49.143,199.358,48.379,198.247,48.379L198.247,48.379z M198.27,49.101c0.597,0,0.947,0.404,0.947,1.118h-2.058
	C197.181,49.539,197.613,49.101,198.27,49.101L198.27,49.101z M203.355,47.025v5.69h0.895v-5.69H203.355L203.355,47.025z
	 M208.634,52.716h0.865v-2.749c0-1.051-0.522-1.589-1.424-1.589c-0.597,0-1.118,0.244-1.529,0.614h-0.015v-0.53h-0.79v4.253h0.857
	v-3.219c0.306-0.235,0.701-0.37,1.081-0.37c0.634,0,0.954,0.303,0.954,0.95V52.716L208.634,52.716z M211.952,52.716h0.947
	l1.596-4.253h-0.82l-1.223,3.371h-0.015l-1.223-3.371h-0.865L211.952,52.716L211.952,52.716z M216.97,48.379
	c-1.193,0-1.961,0.874-1.961,2.219c0,1.404,0.79,2.236,2.147,2.236c0.485,0,1.037-0.118,1.439-0.303v-0.706
	c-0.5,0.193-0.91,0.294-1.29,0.294c-0.925,0-1.417-0.437-1.424-1.261h2.848v-0.42C218.73,49.143,218.082,48.379,216.97,48.379
	L216.97,48.379z M216.993,49.101c0.597,0,0.947,0.404,0.947,1.118h-2.058C215.904,49.539,216.337,49.101,216.993,49.101
	L216.993,49.101z M222.362,51.539c0-1.488-1.946-1.11-1.946-1.933c0-0.395,0.298-0.555,0.738-0.555c0.358,0,0.708,0.084,0.999,0.235
	v-0.714c-0.231-0.092-0.619-0.193-1.059-0.193c-0.887,0-1.521,0.378-1.521,1.244c0,1.53,1.931,1.118,1.931,1.942
	c0,0.462-0.35,0.597-0.768,0.597c-0.447,0-0.835-0.118-1.193-0.269v0.714c0.388,0.168,0.865,0.227,1.215,0.227
	C221.646,52.833,222.362,52.464,222.362,51.539L222.362,51.539z M224.546,51.547v-2.404h1.387v-0.681h-1.387v-1.168h-0.865v1.168
	h-0.761v0.681h0.761v2.387c0,0.857,0.447,1.303,1.275,1.303c0.298,0,0.671-0.05,0.917-0.118v-0.723
	c-0.261,0.076-0.485,0.109-0.679,0.109C224.755,52.102,224.546,51.934,224.546,51.547L224.546,51.547z M227.82,47.731v-0.967h-0.858
	v0.967H227.82L227.82,47.731z M226.962,52.716h0.858v-4.253h-0.858V52.716L226.962,52.716z M232.033,52.144v0.672
	c0,0.664-0.388,0.958-1.268,0.958c-0.44,0-0.857-0.101-1.402-0.328v0.748c0.477,0.193,0.984,0.286,1.544,0.286
	c1.335,0,1.976-0.588,1.976-1.824v-4.194H232.1v0.471h-0.015c-0.343-0.353-0.82-0.555-1.297-0.555c-1.126,0-1.849,0.857-1.849,2.185
	c0,1.353,0.656,2.152,1.767,2.152c0.492,0,0.954-0.202,1.312-0.572H232.033L232.033,52.144z M229.825,50.556
	c0-0.899,0.447-1.454,1.163-1.454c0.38,0,0.701,0.126,1.029,0.395v2.059c-0.35,0.286-0.701,0.429-1.044,0.429
	C230.243,51.984,229.825,51.472,229.825,50.556L229.825,50.556z M237.521,51.892v-1.95c0-1.101-0.492-1.563-1.67-1.563
	c-0.455,0-0.932,0.067-1.402,0.202l-0.007,0.698c0.477-0.118,0.902-0.168,1.245-0.168c0.694,0,0.977,0.244,0.977,0.815v0.227h-1.014
	c-1.074,0-1.67,0.496-1.67,1.395c0,0.807,0.507,1.269,1.402,1.269c0.559,0,1.029-0.176,1.372-0.53
	c0.089,0.378,0.321,0.53,0.716,0.53c0.179,0,0.343-0.042,0.537-0.109v-0.563c-0.112,0.017-0.149,0.017-0.194,0.017
	C237.632,52.161,237.521,52.085,237.521,51.892L237.521,51.892z M234.844,51.463c0-0.488,0.328-0.74,0.992-0.74h0.828v1.059
	c-0.283,0.218-0.619,0.319-1.007,0.319C235.105,52.102,234.844,51.875,234.844,51.463L234.844,51.463z M242.173,52.606v-0.74
	c-0.38,0.151-0.753,0.227-1.118,0.227c-0.917,0-1.409-0.521-1.417-1.496c-0.007-0.983,0.485-1.479,1.439-1.479
	c0.336,0,0.649,0.05,0.992,0.168V48.53c-0.358-0.093-0.723-0.151-1.029-0.151c-1.462,0-2.297,0.824-2.297,2.253
	c0,1.378,0.805,2.202,2.162,2.202C241.338,52.833,241.763,52.758,242.173,52.606L242.173,52.606z M244.06,47.731v-0.967h-0.857
	v0.967H244.06L244.06,47.731z M243.202,52.716h0.857v-4.253h-0.857V52.716L243.202,52.716z M247.512,46.412l-0.634,1.463h0.582
	l0.992-1.463H247.512L247.512,46.412z M249.511,50.631c0-1.362-0.865-2.253-2.177-2.253c-1.275,0-2.155,0.899-2.155,2.219
	c0,1.328,0.858,2.236,2.118,2.236C248.586,52.833,249.511,51.926,249.511,50.631L249.511,50.631z M248.608,50.623
	c0,0.883-0.515,1.479-1.268,1.479c-0.768,0-1.275-0.588-1.275-1.513c0-0.908,0.522-1.479,1.275-1.479
	C248.101,49.11,248.608,49.698,248.608,50.623L248.608,50.623z M253.515,52.716h0.865v-2.749c0-1.051-0.522-1.589-1.424-1.589
	c-0.597,0-1.118,0.244-1.529,0.614h-0.015v-0.53h-0.79v4.253h0.857v-3.219c0.306-0.235,0.701-0.37,1.081-0.37
	c0.634,0,0.954,0.303,0.954,0.95V52.716L253.515,52.716z M259.584,48.379c-1.193,0-1.961,0.874-1.961,2.219
	c0,1.404,0.79,2.236,2.147,2.236c0.485,0,1.036-0.118,1.439-0.303v-0.706c-0.5,0.193-0.91,0.294-1.29,0.294
	c-0.925,0-1.417-0.437-1.424-1.261h2.848v-0.42C261.344,49.143,260.695,48.379,259.584,48.379L259.584,48.379z M259.607,49.101
	c0.597,0,0.947,0.404,0.947,1.118h-2.058C258.518,49.539,258.951,49.101,259.607,49.101L259.607,49.101z M265.348,52.716h0.865
	v-2.749c0-1.051-0.522-1.589-1.424-1.589c-0.597,0-1.118,0.244-1.529,0.614h-0.015v-0.53h-0.79v4.253h0.858v-3.219
	c0.306-0.235,0.701-0.37,1.081-0.37c0.634,0,0.954,0.303,0.954,0.95V52.716z"/>
<path id="centrogeo" class="st2" d="M292.093,28.267c0,3.262-2.143,5.467-5.281,5.467c-3.2,0-5.312-2.174-5.312-5.591
	c0-3.355,2.174-5.467,5.312-5.467C289.98,22.676,292.093,24.85,292.093,28.267L292.093,28.267z M295.851,28.298
	c0-5.032-3.603-8.325-9.071-8.325c-5.312,0-8.977,3.324-8.977,8.201c0,4.908,3.572,8.263,8.822,8.263
	C292,36.437,295.851,33.082,295.851,28.298L295.851,28.298z M268.343,22.645c2.485,0,3.945,1.491,3.945,4.131h-8.574
	C263.808,24.26,265.61,22.645,268.343,22.645L268.343,22.645z M268.25,19.973c-4.97,0-8.17,3.231-8.17,8.201
	c0,5.188,3.293,8.263,8.946,8.263c2.019,0,4.318-0.435,5.995-1.118v-2.609c-2.081,0.714-3.79,1.087-5.374,1.087
	c-3.852,0-5.902-1.615-5.933-4.66h11.866v-1.553C275.581,22.8,272.879,19.973,268.25,19.973L268.25,19.973z M256.026,18.762v-3.106
	c-1.677-0.652-3.603-1.118-6.399-1.118c-7.766,0-12.674,3.914-12.674,11.152c0,7.704,5.343,10.748,11.835,10.748
	c3.293,0,6.026-0.528,8.17-1.367V24.944h-3.697v8.139c-1.056,0.217-2.33,0.373-4.069,0.373c-5.094,0-8.387-2.485-8.387-7.952
	c0-4.877,2.92-7.952,9.35-7.952C252.515,17.55,254.472,18.141,256.026,18.762z M230.816,28.267c0,3.262-2.143,5.467-5.281,5.467
	c-3.2,0-5.312-2.174-5.312-5.591c0-3.355,2.174-5.467,5.312-5.467C228.704,22.676,230.816,24.85,230.816,28.267L230.816,28.267z
	 M234.575,28.298c0-5.032-3.603-8.325-9.071-8.325c-5.312,0-8.977,3.324-8.977,8.201c0,4.908,3.572,8.263,8.822,8.263
	C230.723,36.437,234.575,33.082,234.575,28.298L234.575,28.298z M215.578,23.266v-3.293c-2.392,0-4.225,0.87-6.523,3.137h-0.093
	v-2.827h-3.293v15.718h3.572V25.285C211.105,23.981,213.373,23.266,215.578,23.266L215.578,23.266z M196.862,31.684V22.8h5.778
	v-2.516h-5.778v-4.318h-3.603v4.318h-3.168V22.8h3.168v8.822c0,3.168,1.864,4.815,5.312,4.815c1.242,0,2.796-0.186,3.821-0.435
	v-2.671c-1.087,0.28-2.019,0.404-2.827,0.404C197.731,33.735,196.862,33.113,196.862,31.684L196.862,31.684z M184.388,36.002h3.603
	V25.844c0-3.883-2.174-5.871-5.933-5.871c-2.485,0-4.66,0.901-6.368,2.268h-0.062v-1.957h-3.293v15.718h3.572V24.105
	c1.274-0.87,2.92-1.367,4.504-1.367c2.64,0,3.976,1.118,3.976,3.51V36.002L184.388,36.002z M161.726,22.645
	c2.485,0,3.945,1.491,3.945,4.131h-8.574C157.191,24.26,158.993,22.645,161.726,22.645L161.726,22.645z M161.633,19.973
	c-4.97,0-8.17,3.231-8.17,8.201c0,5.188,3.293,8.263,8.946,8.263c2.019,0,4.318-0.435,5.995-1.118v-2.609
	c-2.081,0.714-3.79,1.087-5.374,1.087c-3.852,0-5.902-1.615-5.933-4.66h11.866v-1.553C168.964,22.8,166.262,19.973,161.633,19.973
	L161.633,19.973z M151.179,18.513v-3.137c-1.802-0.497-3.914-0.839-6.492-0.839c-6.399,0-12.115,3.417-12.115,11.059
	c0,6.275,3.79,10.841,12.519,10.841c2.671,0,4.815-0.342,6.585-0.839v-3.044c-2.237,0.652-3.945,0.87-5.964,0.87
	c-6.43,0-9.226-3.293-9.226-7.952c0-4.908,3.417-7.921,8.977-7.921C147.482,17.55,149.377,17.954,151.179,18.513z"/>
<circle id="fondo" class="st3" cx="77.289" cy="45" r="45"/>
<path id="plasta" class="st1" d="M72.793,0.245L72.793,0.245L72.793,0.245L72.793,0.245C72.792,0.244,72.792,0.244,72.793,0.245
	c-0.003,0-0.007,0.002-0.007,0.002C72.786,0.247,72.792,0.245,72.793,0.245L72.793,0.245z M69.314,0.723L69.314,0.723
	c0.021-0.004,0.05-0.01,0.071-0.014c-0.018,0.003-0.042,0.007-0.061,0.01c-0.438,0.073-1.627,0.32-1.742,0.363
	c0.057-0.001,0.11-0.02,0.165-0.028c-0.006,0.003-0.015,0.006-0.022,0.007c0.315-0.065,0.626-0.144,0.941-0.209
	c-0.015,0.004-0.031,0.007-0.046,0.011c0.006-0.001,0.015-0.003,0.021-0.004c-0.147,0.033-0.236,0.055-0.349,0.082
	c0.294-0.048,0.582-0.124,0.873-0.186C69.215,0.743,69.265,0.733,69.314,0.723L69.314,0.723z M74.155,0.356L74.155,0.356
	c-0.049-0.051-0.049-0.051-1.656,0.12c-0.026,0.001-0.026,0.001-0.066-0.008c-0.065-0.022-0.065-0.022-0.226-0.005
	c0.081-0.018,0.188-0.041,0.269-0.059c-0.335,0.028-0.672,0.022-1.007,0.054l-0.026,0.016c-0.003,0.004-0.008,0.009-0.011,0.013
	c0.023,0.019,0.028,0.023,0.187,0.007c0,0,0,0,0,0l0,0c0,0,0,0,0,0c0,0,0,0,0,0l0,0c0,0,0,0,0,0l0,0c0,0,0,0,0,0
	c0.25-0.029,0.26-0.03,0.282-0.006c0.02,0.001,0.046,0,0.065-0.001c-0.13,0.071-0.133,0.075-0.158,0.109
	c0.015,0.017,0.041,0.045,0.247,0.032c0.071-0.004,0.166-0.012,0.237-0.019c0.066-0.006,0.107-0.028,0.15-0.052
	c0.005-0.003,0.011-0.008,0.016-0.009c0.044-0.003,0.079,0.033,0.124,0.031c0.283-0.016,0.563-0.056,0.844-0.084
	c0.145-0.032,0.145-0.032,0.198-0.027c-0.005,0.004-0.011,0.009-0.016,0.014c0.004,0,0.478-0.036,0.546-0.052
	c-0.014-0.006-0.032-0.014-0.043-0.023c0.003-0.005,0.006-0.011,0.009-0.016c-0.004,0.001-0.01,0.003-0.015,0.004
	c0.007-0.008,0.018-0.016,0.027-0.02c-0.003,0.005-0.007,0.011-0.011,0.016c0.015-0.004,0.03-0.01,0.045-0.013
	C74.166,0.372,74.161,0.362,74.155,0.356L74.155,0.356z M69.608,0.795c-0.149,0.045-0.354,0.107-0.49,0.136
	c-0.017,0.004-0.041,0.008-0.058,0.011c-0.068,0.013-0.138,0.013-0.207,0.02c-0.427,0.047-0.831,0.203-1.257,0.252
	c0.336-0.106,0.336-0.106,0.456-0.125c0.036-0.011,0.072-0.023,0.098-0.032c-0.065,0.01-0.065,0.01-0.076,0.008
	c0.039-0.022,0.085-0.025,0.124-0.047c-0.385,0.104-0.404,0.107-0.459,0.101c-0.042,0.003-0.097,0.006-0.139,0.009
	c0.083-0.021,0.165-0.042,0.248-0.063c0.857-0.213,0.907-0.212,0.996-0.208c-0.052,0.026-0.055,0.033-0.06,0.047
	c0.055,0.038,0.336-0.045,0.338-0.046c-0.014,0.002-0.027,0.005-0.041,0.006c0.004-0.002,0.009-0.005,0.013-0.007
	c0.291-0.103,0.291-0.103,0.597-0.161c0.012-0.002,0.027-0.004,0.039-0.005c-0.291,0.096-0.291,0.096-0.298,0.11
	c0.109-0.011,0.214-0.046,0.324-0.051C69.711,0.763,69.652,0.781,69.608,0.795L69.608,0.795L69.608,0.795z M70.863,0.663
	L70.863,0.663l0.112-0.031c0.06-0.037,0.136-0.048,0.181-0.11c-0.007-0.002-0.007-0.002-0.025,0
	c-0.443,0.064-0.443,0.064-0.466,0.083c0.005,0,0.005,0,0.024-0.003c-0.019,0.023-0.06,0.038-0.061,0.038
	c0,0-0.028-0.001-0.035-0.017c-0.015-0.037-0.106-0.004-0.166,0.018c-0.112,0.04-0.112,0.04-0.136,0.031
	c0.001-0.018,0.019-0.025,0.026-0.039c-0.052-0.02-0.224,0.022-0.277,0.077c0,0.002,0,0.005,0,0.007
	c0.038,0.021,0.161,0.006,0.432-0.027c-0.053,0.028-0.11,0.052-0.11,0.052c0.007-0.008,0.007-0.008,0.073-0.046
	c-0.026,0.004-0.136,0.061-0.148,0.071c0.021,0.022,0.438-0.051,0.442-0.052C70.779,0.707,70.818,0.677,70.863,0.663L70.863,0.663z
	 M71.181,0.701c-0.007,0.001-0.014,0.002-0.021,0.003c-0.035-0.013-0.082-0.03-0.117-0.043c0.136-0.023,0.268-0.064,0.405-0.086
	c0.127-0.016,0.134,0.01,0.092,0.092L71.181,0.701L71.181,0.701L71.181,0.701z M74.208,0.385L74.208,0.385
	c-0.002-0.002-0.012-0.006-0.028-0.007c0,0,0.001,0,0.001,0.001C74.205,0.388,74.209,0.387,74.208,0.385
	C74.209,0.386,74.208,0.386,74.208,0.385L74.208,0.385z M66.777,1.439L66.777,1.439c0.024-0.008,0.057-0.018,0.081-0.026
	c-0.009,0-0.022-0.001-0.031-0.001c0.024-0.019,0.024-0.019,0.088-0.052c-0.122-0.066-0.223,0.05-0.338,0.038
	c0.001-0.006,0.003-0.013,0.004-0.019c-0.016-0.013-0.016-0.013-0.077-0.002c-0.787,0.156-2.372,0.721-2.55,0.785
	c0.113-0.036,0.123-0.036,0.152-0.038c-0.103,0.085-0.228,0.131-0.342,0.197c0.207,0.004,0.383-0.106,0.575-0.157
	c0.698-0.204,1.387-0.436,2.087-0.63C66.654,1.479,66.654,1.479,66.777,1.439L66.777,1.439z M81.458,89.679l0.037-0.012l0.127-0.039
	L81.458,89.679L81.458,89.679z M51.571,8.06l0.001-0.001l0.001-0.001l0.001-0.001l0.001-0.001L51.571,8.06L51.571,8.06z
	 M51.494,8.114L51.494,8.114l0.077-0.054l-0.176,0.123l0.027-0.019C51.444,8.149,51.472,8.129,51.494,8.114L51.494,8.114z
	 M61.807,3.722c0.028-0.017,0.064-0.039,0.092-0.056c-0.711,0.261-0.711,0.261-0.757,0.221c0.021-0.056,0.109-0.11,0.109-0.111
	c0.052-0.026,0.111-0.007,0.164-0.028c0.101-0.039,0.192-0.099,0.288-0.148c-0.236,0.046-0.416,0.099-0.909,0.256
	c-0.324,0.103-0.657,0.178-0.982,0.28c0,0-0.112,0.071-0.17,0.115c0.016,0.003,0.016,0.003,0.148-0.035
	c0.752-0.218,0.752-0.218,0.836-0.18c-0.178,0.071-0.414,0.167-0.592,0.238c-0.197,0.089-0.393,0.181-0.59,0.271
	c-0.025,0.011-0.049,0.022-0.074,0.034c0.103-0.017,0.211,0.002,0.312-0.035c0.28-0.101,0.534-0.264,0.828-0.331
	c-0.076,0.049-0.151,0.097-0.227,0.147c-0.234,0.063-0.25,0.071-0.52,0.202c0.247-0.052,0.473-0.167,0.714-0.235
	c0.112-0.074,0.225-0.148,0.338-0.22C61.265,4.041,61.292,4.037,61.807,3.722L61.807,3.722L61.807,3.722z M74.712,12.466
	c0.05,0.01,0.118,0.02,0.169,0.028c-0.09-0.363-0.292-0.686-0.381-1.05c-0.165,0.03-0.317,0.128-0.495,0.096
	c-0.301-0.055-0.378-0.136-0.446-0.235c-0.133-0.194-0.207-0.208-0.874-0.167c-0.001,0-0.001,0-0.002,0c-0.001,0-0.001,0-0.002,0
	c-0.001,0-0.001,0-0.002,0c-0.001,0-0.001,0-0.002,0c-0.001,0-0.001,0-0.002,0c-0.001,0-0.001,0-0.002,0c-0.001,0-0.001,0-0.002,0
	c-0.001,0-0.001,0-0.002,0c-0.303,0.031-0.605,0.067-0.907,0.098c-0.061,0.176-0.072,0.194-0.123,0.211
	c-0.071,0.003-0.133,0.006-0.233,0.067c-0.51,0.314-1.087,0.497-1.59,0.825c-0.373,0.243-0.373,0.243-0.582,0.589
	c0.082-0.042,0.254-0.129,0.45-0.187c0.146-0.044,0.146-0.044,0.674,0.011c0.772,0.08,1.27-0.561,1.943-0.741
	c-0.366,0.474-0.366,0.474-0.384,0.521c0.092-0.048,0.307-0.161,0.41-0.164c0.066-0.002,0.11-0.003,0.182,0.092
	c0.1,0.132,0.192,0.216,0.541,0.187c0.462-0.038,0.873-0.313,1.348-0.293C74.518,12.358,74.603,12.445,74.712,12.466L74.712,12.466
	L74.712,12.466z M78.612,13.406L78.612,13.406c0.003,0.042,0.002,0.098,0.002,0.141c-0.475-0.017-0.87-0.298-1.32-0.397
	c0.354,0.355,0.354,0.355,0.358,0.401c-0.152,0.178-0.204,0.238-0.282,0.532c-0.105,0.481-0.105,0.481-0.239,0.633
	c-0.258-0.073-0.258-0.073-0.678-0.725c-0.6,0.389-0.6,0.389-0.788,0.461c0.353-0.982,0.353-0.982,0.239-1.126
	c-0.289-0.363-0.793-0.335-1.376-0.304c-0.048,0.177-0.131,0.345-0.144,0.531c-0.136,0.068-0.297,0.043-0.43,0.12
	c-0.12,0.07-0.155,0.122-0.234,0.266c-0.196,0.358-0.109,0.697-0.009,1.089c0.204,0.799,0.038,1.006-0.935,1.164
	c-0.33-1.001-0.349-1.061-0.199-1.687c0.034-0.198,0.161-0.484,0.076-0.666c-0.051-0.11-0.03-0.182-0.029-0.182
	c0.053-0.17,0.137-0.271,0.348-0.418c0.446-0.31,1.461-0.395,2.068-0.447c0.052-0.005,0.065-0.012,0.137-0.047
	c0.259-0.126,0.982-0.398,2.096-0.207C78.561,12.76,78.594,13.18,78.612,13.406L78.612,13.406z M74.433,13.562
	c0.001-0.003-0.001-0.012-0.047-0.002c0.001,0.003,0.002,0.006,0.004,0.008C74.402,13.585,74.431,13.571,74.433,13.562
	L74.433,13.562L74.433,13.562z M79.627,14.739c0.019-0.032,0.041-0.077,0.058-0.109c-0.49,0.043-0.498,0.047-0.689,0.133
	c-0.004,0.002-0.432,0.189-0.663,0.217c-0.064,0.003-0.113-0.059-0.18-0.041c-0.049,0.013-0.149,0.05-0.489,0.222
	c-0.766,0.386-0.766,0.386-1.103,0.409c-0.148,0.01-0.192,0.014-0.318,0.025c0.186,0.369,0.395,0.542,0.967,0.397
	c0.203-0.051,1.803-0.745,1.936-0.814C79.43,15.03,79.557,14.857,79.627,14.739L79.627,14.739L79.627,14.739z M70.31,1.189
	c-0.082,0.058-0.167,0.086-0.275,0.121c-0.182,0.04-0.421,0.146-0.608,0.135c-0.087-0.005-0.126-0.092-0.202-0.117
	c-0.069-0.022-0.142,0.005-0.211-0.018c-0.007-0.002-0.017-0.006-0.024-0.009c-0.024-0.01-0.008-0.036-0.013-0.053
	c-0.003,0-0.006,0.001-0.009,0.001c0.166-0.107,0.29-0.073,0.291-0.073c0.129,0.043,0.132,0.043,0.393-0.07
	c-0.097-0.013-0.097-0.013-0.18-0.005c0.042-0.023,0.083-0.045,0.125-0.067c0.128-0.028,0.796-0.152,0.8-0.152
	c0.06-0.008,0.118,0.015,0.177,0.011c-0.197,0.098-0.197,0.098-0.471,0.16c0.174,0.031,0.174,0.031,0.198,0.064
	c0.083-0.082,0.083-0.082,0.173-0.107C70.422,1.083,70.384,1.137,70.31,1.189L70.31,1.189L70.31,1.189z M68.439,1.854L68.439,1.854
	c0.012-0.009,0.028-0.022,0.04-0.031c-0.239,0.008-0.464-0.08-0.699-0.101c0.258-0.126,0.44-0.375,0.727-0.454
	c0.051-0.014,0.273-0.08,0.273-0.081c0.041-0.023,0.057-0.045,0.07-0.063c-0.038-0.009-0.038-0.009-0.093,0
	c-0.323,0.058-0.323,0.058-0.391,0.145c-0.258,0.012-0.258,0.012-0.351,0.021c-0.247,0.11-0.437,0.338-0.73,0.352
	c-0.002-0.007-0.004-0.017-0.006-0.024c0.085-0.062,0.185-0.101,0.258-0.178c-0.001-0.001-0.15-0.045-0.237,0.034
	c-0.128,0.121-0.277,0.052-0.284,0.049c0.002-0.008,0.005-0.018,0.007-0.026c-0.21-0.04-0.383,0.085-0.574,0.127
	c0.142-0.061,0.288-0.111,0.43-0.169c-0.272,0.048-0.538,0.126-0.809,0.177c0,0,0,0,0,0c0,0,0,0,0,0l0,0c0,0,0,0,0,0c0,0,0,0,0,0
	l0,0c0,0,0,0,0,0l0,0l-0.504,0.159c-0.203,0.075-0.41,0.14-0.614,0.214c0.002,0.002,0.004,0.004,0.006,0.005
	c0.015,0.027,0.015,0.027,0.492-0.057c-0.037,0.016-0.075,0.033-0.112,0.049c-0.006,0.001-0.624,0.128-0.788,0.219
	c0.004,0.008,0.008,0.018,0.012,0.026c0.057,0.002,0.057,0.002,0.81-0.119c0.101-0.01,0.203,0.004,0.305-0.009
	c-0.151,0.061-0.151,0.061-0.678,0.138c0,0,0,0,0,0c0,0,0,0,0,0c0,0,0,0,0,0c0,0,0,0,0,0c0,0,0,0-0.001,0c0,0,0,0,0,0c0,0,0,0,0,0
	c0,0,0,0-0.001,0c-0.596,0.102-0.925,0.159-1.029,0.351c0.184,0.062,0.352-0.059,0.532-0.045c-0.001,0.008-0.002,0.019-0.002,0.027
	c-0.064,0.052-0.136,0.093-0.197,0.148c0.069,0.04,0.069,0.04,0.272,0.004c0.304-0.054,0.801-0.17,1.2-0.263
	c0.259-0.06,0.49-0.203,0.755-0.245c0.014-0.002,0.031,0.009,0.044,0.013c0.343,0.1,0.616,0.083,0.784,0.05
	c0.246-0.047,0.378-0.102,0.566-0.2c-0.084-0.053-0.1-0.055-0.379,0.048c0.221-0.132,0.39-0.209,0.551-0.184
	C68.264,1.99,68.264,1.99,68.439,1.854L68.439,1.854z M67.031,1.516c-0.001,0-0.003-0.003-0.003-0.011c0,0,0.001,0,0.001,0
	c0.001,0,0.001,0,0.002,0C67.034,1.506,67.033,1.515,67.031,1.516L67.031,1.516L67.031,1.516z M68.953,1.257L68.953,1.257
	c0.005-0.003,0.01-0.006,0.015-0.009c0,0-0.001,0-0.001,0c-0.01,0.004-0.018,0.009-0.018,0.01
	C68.951,1.26,68.952,1.258,68.953,1.257L68.953,1.257z M76.207,1.313L76.207,1.313c-0.001,0-0.001,0.001-0.002,0.001
	C76.206,1.314,76.207,1.314,76.207,1.313L76.207,1.313z M74.789,0.07c0.14-0.008,0.266-0.014,0.381-0.02l0.012-0.001l0.316-0.014
	l0.027-0.001l0.004,0l0.021-0.001l0.003,0l0.009,0l0.012,0l0.003,0l0.008,0l0.011,0l0.004,0c0.116-0.004,0.225-0.008,0.333-0.011
	l0.001,0l0.013,0l0.007,0l0.007,0c0.097-0.003,0.227-0.006,0.419-0.011l0.002,0l0.003,0l0.012,0l0.153-0.003l0.012,0l0.002,0
	c0.102-0.002,0.216-0.003,0.333-0.004C77.046,0,77.245,0,77.599,0c0.329,0.003,0.723,0.011,1.105,0.022
	c0.192,0.007,0.439,0.016,0.778,0.029l0.18,0.009c0.451,0.025,0.984,0.067,1.4,0.095c0.429,0.04,0.974,0.099,1.94,0.204
	c0.215,0.032,0.442,0.067,0.678,0.104c1.115,0.178,2.407,0.417,3.419,0.612l0.471,0.109l0,0c0.031,0.011,0.07,0.031,0.1,0.044
	c0.027,0.012,0.063,0.027,0.09,0.039c-0.118-0.021-0.118-0.021-0.465-0.097c0.276,0.07,1.204,0.318,1.561,0.557
	c0.006,0.033,0.013,0.077,0.018,0.11C88.48,1.688,88.48,1.688,88.36,1.665c0.148,0.058,0.297,0.112,0.445,0.169
	c-0.106-0.004-0.216-0.008-0.328-0.012c0.19,0.072,0.19,0.072,0.263,0.154c-0.029-0.002-0.068-0.004-0.098-0.005l0.45,0.111
	c0.025,0.011,2.628,1.276,2.897,1.706c-0.689,0.054-1.264-0.65-1.998-0.3c-2.178-1.15-4.674-1.41-6.888-2.462
	c0.281,0.032,0.281,0.032,0.464,0.031c-0.233-0.074-0.462-0.159-0.696-0.227l-0.032-0.004c-0.305-0.034-0.711-0.079-1.015-0.113
	c0.411,0.072,0.475,0.078,0.678,0.092c0.081,0.023,0.162,0.046,0.186,0.072c-0.043,0.016-0.043,0.016-0.725-0.02
	c-0.151-0.047-0.302-0.091-0.454-0.134c0.067-0.002,0.134-0.004,0.2-0.006c-0.14-0.027-0.326-0.063-0.466-0.09
	c0.332-0.001,0.662,0.04,0.994,0.042c-0.059-0.013-0.138-0.029-0.197-0.04c-0.545-0.065-1.104,0.029-1.638-0.15
	c0.014-0.014,0.032-0.032,0.046-0.046c-0.172,0.005-0.172,0.005-0.679-0.087c0.066,0.003,0.155,0.009,0.221,0.014
	c-0.196-0.047-0.399-0.053-0.597-0.084c-0.852-0.11-2.049-0.23-2.914-0.18c-0.007,0.001-0.943,0.048-1.439,0.028
	c0.088-0.013,0.204-0.031,0.291-0.046c-0.004,0-0.447,0.044-0.862,0.023c0.201-0.022,0.201-0.022,0.289-0.028l-0.007,0L74.789,0.07
	L74.789,0.07z M73.991,0.122l0.002,0l0.002,0c0.022-0.001,0.044-0.003,0.066-0.005L74,0.122l-0.004,0l-0.002,0L73.991,0.122
	L73.991,0.122z M72.234,0.286c0.146-0.016,0.29-0.032,0.417-0.045l0.007-0.001c0.121-0.012,0.242-0.024,0.364-0.036l0.001,0
	l0.067-0.006l0.001,0v0c0.075-0.005,0.174-0.016,0.252-0.023l0.004,0l0.001,0l0.003,0l0.275-0.023h0l0.006,0l0.002,0l0.004,0
	c0.105-0.008,0.234-0.018,0.348-0.027l-0.056,0.004l-0.003,0h0c-0.018,0.002-0.035,0.003-0.053,0.006
	c0.095-0.004,0.19-0.009,0.285-0.013c0.013,0.002,0.033,0.005,0.043,0.015c-0.022,0.008-0.036,0.013-0.192,0.026
	c0.003,0.001,0.008,0.002,0.011,0.003c0.008,0.002,0.017,0.008,0.024,0.013c-0.015,0.01-0.016,0.011-0.101,0.018
	c0.084,0.019,0.084,0.019,0.227,0.004c0.021,0.006,0.043,0.013,0.064,0.02c-0.228,0.056-0.228,0.056-0.506,0.057
	c-0.418,0.032-0.418,0.032-0.502,0.052c-0.228,0.019-0.533,0.046-0.761,0.066c0.028-0.017,0.028-0.017,0.381-0.09
	c-0.053-0.007-0.059-0.01-0.075-0.019c-0.001-0.003-0.002-0.008-0.002-0.011c0.129-0.012,0.129-0.012,0.374-0.008
	C73.092,0.24,73.092,0.24,72.85,0.248c0.049-0.019,0.104-0.014,0.152-0.036c0,0-0.001-0.001-0.001-0.001
	c-0.063,0.01-0.063,0.01-0.175,0.022c-0.034,0.012-0.034,0.012-0.051,0.015c-0.003,0.001-0.349,0.061-0.476,0.05
	c-0.018-0.001-0.041-0.002-0.059-0.004c0.075-0.019,0.151-0.022,0.227-0.033c0.008-0.001,0.018-0.002,0.026-0.004
	C72.407,0.267,72.321,0.28,72.234,0.286L72.234,0.286z M71.236,0.411c0.089-0.012,0.172-0.023,0.25-0.034
	c-0.004,0.001-0.008,0.002-0.012,0.003c0.032-0.004,0.064-0.009,0.096-0.013c-0.06,0.021-0.142,0.049-0.205,0.057l0,0
	c-0.107,0.012-0.109,0.011-0.113,0.009c0.011-0.004,0.023-0.005,0.033-0.01c-0.119-0.005-0.233,0.039-0.351,0.043
	c0.016-0.005,0.082-0.018,0.114-0.024c0.045-0.006,0.091-0.012,0.138-0.018c0.021-0.004,0.041-0.007,0.062-0.013L71.236,0.411
	L71.236,0.411z M51.964,7.789l0.008-0.005l1.2-0.789c0.283-0.176,0.537-0.333,0.77-0.476c0.661-0.399,1.37-0.804,1.959-1.125
	l0.002-0.001c0.812-0.424,1.794-0.889,3.567-1.726l0.034-0.015c0.906-0.299,1.829-0.546,2.725-0.877l0.13-0.052
	c-0.001,0.034-0.002,0.08-0.003,0.114c0.135-0.05,0.314-0.116,0.449-0.166l-0.344,0.198c0.273-0.094,0.273-0.094,1.585-0.061
	c-0.067,0.039-0.134,0.079-0.201,0.119c-0.134,0.049-0.313,0.114-0.447,0.163c0.432-0.025,0.432-0.025,1.464-0.238
	c0.267,0.058,0.267,0.058,1.17-0.238c-0.143-0.051-0.355,0.008-0.506,0.024c1.148-0.403,2.42-0.001,3.547-0.543
	c-0.161,0.005-0.376,0.012-0.537,0.018c0.359-0.138,0.905-0.292,1.27-0.17c-0.153,0.116-0.402,0.201-0.583,0.265
	c0.111,0.081,0.259,0.189,0.37,0.27c0.22-0.184,0.544-0.395,0.804-0.517c-0.012-0.057-0.027-0.133-0.039-0.19
	c-0.124-0.061-0.29-0.143-0.414-0.204c0.731-0.671,0.811-0.686,1.435-0.804c0.093,0.037,0.218,0.085,0.311,0.122
	c-0.27,0.06-0.623,0.168-0.881,0.269c-0.023,0.024-0.045,0.049,0.092,0.068c0.019,0.133,0.045,0.31,0.064,0.443l0.61,0.013
	l-0.063,0.294c0.185-0.09,0.432-0.209,0.617-0.299c0.073,0.12,0.169,0.28,0.242,0.401c0.14-0.005,0.327-0.011,0.468-0.016
	c-0.021-0.061-0.049-0.142-0.069-0.203c0.422-0.161,0.776-0.467,1.224-0.57c-1.123,0.081-1.622,0.047-1.952,0.025
	c0.144-0.048,0.337-0.112,0.481-0.16c-0.112-0.078-0.262-0.182-0.374-0.261c0.287-0.183,0.555-0.213,1.089-0.272
	c-0.085,0.108-0.198,0.251-0.283,0.359c0.134,0.017,0.313,0.039,0.447,0.055c-0.004-0.023-0.009-0.046-0.292-0.111
	c0.227-0.179,0.615-0.31,0.903-0.336c0.171,0.04,0.396,0.105,0.565,0.153l0.343-0.06c-0.153-0.075-0.38-0.116-0.546-0.157
	c0.506-0.004,0.999,0.109,1.499,0.161c0.226,0.039,0.533,0.049,0.762,0.048c0.666,0.12,1.345,0.127,2.011,0.249
	C78.58,0.991,78.49,1.013,78.422,1.03c0.124,0.071,0.29,0.166,0.415,0.237c0.711,0.07,1.42,0.151,2.131,0.212
	c0.057,0.03,0.115,0.061,0.355,0.084c0.14,0.008,0.326,0.019,0.466,0.027c0.061,0.031,0.121,0.063-0.175,0.331
	c0.14,0.086,0.279,0.175,0.006,0.201c-1.018-0.217-1.018-0.217-1.399-0.127c0.005,0.002,0.942,0.286,2.042,0.548
	c0.053,0.039,0.107,0.079,0.047,0.322c0.114,0.054,0.267,0.125,0.381,0.179c-0.134-0.031-0.312-0.071-0.446-0.102
	c-0.451-0.078-1.06-0.185-1.517-0.158c0.925,0.221,0.925,0.221,1.268,0.482c-1.878-0.163-3.739-0.48-5.624-0.574
	c0.36-0.291,0.834-0.336,1.22-0.571c-0.031-0.035-0.061-0.07,0.03-0.131c0.115-0.083,0.269-0.195,0.384-0.278
	c-0.265-0.125-0.64-0.248-0.926-0.313c-0.251-0.04-0.587-0.077-0.84-0.097c0.027-0.012,0.063-0.029,0.09-0.041
	C76,1.217,75.563,1.16,75.234,1.118l-0.173,0.157c-0.036,0.003-0.072,0.006-0.488-0.074c-0.132,0.035-0.309,0.081-0.441,0.116
	c0.116,0.239,0.38,0.51,0.61,0.642c-0.249,0.131-0.613,0.25-0.891,0.296l-0.779,0.135c0.002,0.037,0.004,0.074-0.1,0.132
	c-0.108,0.082-0.252,0.191-0.361,0.273c-0.427,0.45-0.525,0.459-1.071,0.508l0,0h0h0c0,0,0,0,0,0l0,0h0h0h0
	c-2.489,1.302-2.489,1.302-2.966,2.068c0.037,0.145,0.085,0.339,0.122,0.485c0.139-0.018,0.324-0.041,0.463-0.059
	c0.184,0.221,0.423,0.521,0.6,0.749c0.276-0.088,0.661-0.154,0.951-0.175c1.616,0.308,3.264,0.392,4.88,0.699
	c0.361,0.996,0.361,0.996,0.586,1.3l1.207,0.646c0.072,0.034,0.168,0.08,0.24,0.114c0.264-0.165,0.574-0.455,0.76-0.704
	c-0.211-0.436-0.492-1.018-0.703-1.454c0.373-0.192,0.845-0.522,1.118-0.84c-0.4-1.056-1.338-1.732-1.889-2.681
	c0.016-0.003,1.587-0.32,2.908,0.075c1.207,0.214,2.162,1.165,3.439,1.173c0.183-0.208,0.329-0.582,0.337-0.859
	c0.631,0.25,0.697,0.276,1.7,0.734c2.966,1.594,2.966,1.594,4.552,1.734c-0.039,0.087-0.091,0.204-0.13,0.291
	c1.751,0.165,1.964,0.74,2.17,1.296c-6.51,2.602-6.51,2.602-6.585,2.976c2.048-1.251,2.612-1.421,3.391-0.845
	c-0.24,0.177-0.604,0.36-0.891,0.443c0.266,0.064,0.642,0.079,0.91,0.028c0.701,1.652,2.397,1.312,2.73,1.228
	c0.07-0.262,0.246-0.595,0.426-0.798c0.171,0.243,0.378,0.583,0.503,0.853c-0.142,0.034-0.332,0.08-0.474,0.115
	c-0.681,0.443-1.646,0.984-2.2,1.579c-0.151-0.052-0.353-0.12-0.505-0.172c-0.013-0.207-0.031-0.482-0.044-0.689
	c0.277-0.171,0.694-0.337,1.016-0.38c-0.022-0.041-0.044-0.081-0.248-0.113c-0.068,0.002-2.346,0.764-2.973,0.994
	c-0.26,0.183-0.595,0.447-0.819,0.673c0.05,0.408,0.165,1.002,0.457,1.292c-0.137,0.028-0.32,0.065-0.458,0.093l-1.76,0.445
	c0.14,0.084,0.327,0.197,0.467,0.281c-0.148,0.035-0.345,0.083-0.493,0.118c-0.211,0.413-0.272,0.896-0.585,1.262
	c-0.144-0.008-0.336-0.018-0.48-0.026c0.164,0.26,0.323,0.669,0.313,0.977c-0.131,0.118-0.306,0.275-0.437,0.392
	c-0.005-0.141-0.012-0.329-0.016-0.469c-0.151-0.009-0.352-0.021-0.503-0.031c0.457,1.635,0.677,1.858,0.982,2.167
	c-0.402,0.284-0.665,0.737-1.139,0.933c-3.706,3.05-3.777,3.108-2.891,4.559c1.998,3.27,1.651,3.841,0.843,4.392
	c-1.678-0.763-1.568-2.826-2.827-3.893c-0.258-0.148-0.603-0.346-0.861-0.494c-0.277,0.114-0.646,0.27-0.921,0.388
	c-0.825-0.491-0.911-0.492-1.584-0.502c-2.275,0.258-2.275,0.258-2.526,0.341c-0.037,0.133-0.086,0.311-0.122,0.444
	c0.032,0.194,0.076,0.453,0.108,0.648c-3.348-0.504-4.995,0.066-5.42,0.253c-0.477,1.445-2.535,2.012-2.174,3.922
	c-0.375,0.466-2.051,2.981,1.748,6.782c1.522,0.48,3.019-0.147,4.532-0.099c0.477-1.362,0.798-2.188,1.081-2.917
	c2.253-0.814,2.659-0.96,3.319-0.354c-0.117,1.038-0.632,2.001-0.586,3.07c-0.122-0.094-0.285-0.22-0.408-0.315
	c-0.055-0.055-0.128-0.129-0.183-0.184c0.189,1.133,0.189,1.133-0.312,3.222c4.994-0.632,6.034-0.764,5.851,1.515
	c-0.47,5.88,2.164,5.399,2.983,5.111c1.398-0.909,2.727,0.129,4.092,0.147c1.24-2.556,1.24-2.556,1.88-2.878
	c1.115-0.367,1.872-1.418,3.078-1.612c-0.022,0.342-0.23,0.779-0.428,1.059c0.096,0.179,0.224,0.417,0.319,0.595
	c1.24-0.719,1.286-0.835,1.276-1.525c0.672,0.531,1.609,0.717,2.036,1.567c1.703-0.164,3.415-0.232,5.11-0.477
	c-0.043,0.132-0.101,0.307-0.145,0.439c2.033,1.377,2.851,4.387,5.904,4.393c1.209,0.002,1.409,0.138,2.272,0.858
	c0.754,0.995,0.651,2.375,1.494,3.33c-0.036,0.298-0.074,0.594-0.258,0.957c-0.128,0.119-0.299,0.278-0.427,0.396
	c0,0.152,0,0.355,0,0.508c0.968,0.043,0.968,0.043,1.432,0.256c-0.167,0.37-0.39,0.863-0.557,1.233
	c0.213-0.247,0.395-0.674,0.661-0.863c0.169-0.12,2.084,0.02,1.818,1.895c2.019-0.752,2.278,2.06,3.748,2.616
	c-0.102,1.045-0.44,1.994-0.705,2.606l0,0c-0.297,0.663-3.501,4.458-3.529,4.486c-1.037,1.222-1.616,2.736-2.561,4.016
	c-1.295,1.633-1.295,1.633-1.81,2.142c-1.262,1.281-1.262,1.281-1.789,1.65c-11.675,8.369-11.675,8.369-12.456,7.983
	c-1.32,0.644-2.025,2.28-3.725,2.312c-0.004-0.015-0.009-0.035-0.012-0.05c-0.089,0.113-0.207,0.264-0.296,0.377
	c-0.668,0.594-0.668,0.594-1.441,0.653c-0.093,0.114-0.217,0.265-0.311,0.379c-0.014,0.018-0.014,0.018-1.066,0.868
	c-0.784,0.468-1.5,1.048-2.337,1.429c-0.661,0.314-0.661,0.314-1.273,0.6c-0.19,0.071-0.448,0.155-0.641,0.218l-0.02,0.005
	l0.362-0.161l0.238-0.179l0.237-0.161h0h0h0h0c0,0,0,0,0,0h0c0,0,0,0,0.166-0.197c0.1-0.11,0.233-0.256,0.333-0.365
	c0.017-0.001,0.033-0.003,0.159-0.074l0.293-0.226l0.04-0.04c-0.031-0.029-0.073-0.067-0.104-0.095
	c0.23-0.206,0.54-0.477,0.773-0.68c-0.073,0.122-0.171,0.284-0.244,0.406c0.306-0.345,0.696-0.833,0.895-1.248
	c-0.151,0.195-0.398,0.421-0.598,0.566c4.49-5.49,6.845-13.361,6.786-14.65c-0.12-2.624-2.966-2.838-4.064-4.597
	c-1.011-1.62-1.518-3.509-2.68-5.049c-0.31-0.41-0.821-0.541-1.193-0.865c-0.238-1.873-0.238-1.873,0.815-2.61
	c-0.027-0.141-0.063-0.328-0.091-0.468c-0.247-0.091-0.533-0.35-0.658-0.582c-0.137-1.092,0.638-2.007,0.595-3.081
	c0.508-0.258,0.508-0.258,1.42-1.722c0.311-0.463,0.726-1.081,1.037-1.545c-1.325-6.07-1.877-5.54-3.352-4.123
	c0.101,0.113,0.236,0.265,0.337,0.378c-0.045,0.137-0.104,0.319-0.149,0.455c-0.261,0.01-0.618-0.081-0.843-0.211
	c-3.035-1.74-3.63-1.876-4.156-1.996c-0.001,0-0.001,0-0.002,0c-0.001,0-0.001,0-0.002,0c-0.001,0-0.001,0-0.002,0
	c-0.001,0-0.001,0-0.002,0c-0.001,0-0.001,0-0.002,0c-0.001,0-0.001,0-0.002,0c-0.001,0-0.001,0-0.002,0
	c-0.001,0-0.001,0-0.025,0.002c-0.202-0.083-0.472-0.193-0.675-0.276c-0.24-0.986-0.407-1.163-0.775-1.551
	c-0.505-0.419-0.994-0.857-1.493-1.283c0.007-0.136,0.016-0.317,0.022-0.453c-0.955,0.319-0.955,0.319-1.898,0.076
	c-1.68-0.272-1.68-0.272-4.631-2.08c-1.367-0.837-2.518,0.565-3.823,0.367c-8.054-2.357-8.054-2.357-8.265-4.939
	c-0.337-0.874-0.964-2.5-3.414-3.712c0.282-1.47-1.78-2.623-2.3-2.722c0.209-0.917,0.316-2.45-1.317-2.411
	c-0.629,2.679,1.671,4.221,2.465,6.348l0.312,0.331l0.748,0.923c-0.18,0.135-0.419,0.315-0.599,0.451
	c-0.321-0.801-0.407-1.017-1.673-1.709c0.023-0.411,0.049-0.82,0.079-1.227c-0.607-0.369-1.416-0.862-2.025-1.227
	c0.22-0.208,0.512-0.485,0.732-0.693c-0.006-0.053-0.762-5.27-3.316-5.159c0.002-0.022-0.12-3.649-0.358-4.709
	c4.294-6.601,4.294-6.601,4.494-6.853l0.012-0.419c-0.134-0.067-0.312-0.156-0.446-0.223c0.018,0.138,0.042,0.321,0.06,0.458
	c-0.078,0.168-0.183,0.393-0.261,0.561c-0.12-0.069-0.279-0.162-0.399-0.231c-0.103-0.345-0.068-0.838-0.087-1.198
	c0.133,0.012,0.311,0.027,0.445,0.038c0.011-0.355,0.133-0.824,0.264-1.155c0.029-0.535,0.029-0.535,0.685-1.175l0.27-0.572
	c-0.033,0.008-0.066,0.015-0.178,0.105c-0.136,0.06-0.317,0.14-0.453,0.2c0.251-0.257,0.591-0.594,0.859-0.833
	c-0.076,0.037-0.177,0.086-0.253,0.123c0.112-0.088,0.261-0.206,0.373-0.294c0.258-0.18,0.588-0.446,0.804-0.675l-0.748,0.559
	c0.336-0.296,0.784-0.692,1.108-1.002c-0.554,0.454-0.554,0.454-1.764,1.554c0.739-0.895,0.739-0.895,1.212-1.132
	c-0.002-0.09-0.004-0.209-0.005-0.299c0.107-0.108,0.249-0.253,0.355-0.362l-0.118-0.007c-0.057,0.001-0.134,0.002-0.191,0.003
	L51.964,7.789L51.964,7.789z M76.93,1.688c-0.058-0.063-0.117-0.124-0.175-0.183c-0.142-0.001-0.283-0.026-0.425-0.012
	c-0.184,0.028-0.211,0.11-0.099,0.301C76.459,1.811,76.775,1.786,76.93,1.688L76.93,1.688z M75.541,3.088L75.541,3.088
	c0.021-0.004,0.049-0.008,0.07-0.012c-0.171-0.12-0.171-0.12-0.656-0.073c-0.057-0.141-0.076-0.188-0.172-0.215
	c-0.031-0.009-0.073-0.021-0.104-0.027c-0.225-0.04-0.225-0.04-1.101-0.116c-0.026-0.002-0.113-0.013-0.143-0.062
	c-0.031-0.052-0.058-0.06-0.286-0.087c-0.014,0.022-0.034,0.051-0.048,0.073c-0.104,0.184-0.135,0.287-0.137,0.615
	c-0.234,0.039-0.234,0.039-0.387,0.167c0.236-0.023,0.471-0.045,0.706-0.067c0.005,0.065,0.011,0.132,0.016,0.199
	c0.165-0.025,0.473-0.073,0.859-0.404c0.097-0.083,0.097-0.083,0.224-0.064c0.181,0.028,0.35,0.105,0.532,0.131
	c0.195,0.028,0.301,0.01,0.364-0.002C75.366,3.129,75.453,3.104,75.541,3.088L75.541,3.088z M48.693,12.175L48.693,12.175
	c0,0.006-0.001,0.014-0.001,0.02c0.17-0.21,0.311-0.442,0.486-0.648c0.121-0.141,0.267-0.256,0.398-0.386
	c-0.07-0.045-0.165-0.106-0.286,0.02C48.888,11.612,48.715,11.9,48.693,12.175L48.693,12.175z M96.321,10.998L96.321,10.998
	l-0.254-0.691c-0.402,0.15-0.394,0.073-0.385-0.025c0.005-0.05,0.012-0.124-0.109-0.107c-0.053,0.007-0.053,0.007-0.189,0.149
	c-0.209-0.359-0.209-0.359,0.015-0.46c-0.22-0.194-0.22-0.194-0.248-0.206c-0.125,0.089-0.125,0.089-0.226,0.108
	c-0.102-0.135-0.102-0.135-0.371-0.547c-0.212,0.006-0.496,0.014-0.708,0.02l-0.038,0.006l-0.152-0.012
	c-0.325-0.062-0.325-0.062-0.704-0.401c-0.17,0.068-0.175,0.074-0.308,0.23c-0.071-0.319-0.165-0.744-0.235-1.062
	c-0.093,0.003-0.186,0.005-0.279,0.009c-0.262,0.03-0.262,0.03,0.01,1.768c0.076,0.341,0.072,0.343-0.121,0.422
	c0.02,0.053,0.108,0.229,0.424,0.246c0.017,0.001,1.881,0.022,2.248-0.1c0.003,0.014,0.007,0.033,0.01,0.048
	c0.02,0.093,0.02,0.093-0.014,0.199c0.153-0.113,0.356-0.264,0.509-0.378c0.21,0.273,0.21,0.273,0.44,0.687
	c0.05-0.1,0.073-0.146,0.103-0.142C95.953,10.788,96.12,10.933,96.321,10.998L96.321,10.998z M71.582,26.454L71.582,26.454
	c0.002-0.06-0.062-0.186-0.071-0.191c0,0,0,0,0,0c-0.003,0.012,0.049,0.135,0.065,0.172C71.578,26.442,71.581,26.449,71.582,26.454
	L71.582,26.454z M87.329,34.798L87.329,34.798c0.075-0.012,0.175-0.022,0.25-0.032c-0.376-0.369-0.376-0.369-3.92-1.785
	c-0.819-0.206-1.584-0.586-2.415-0.754c-0.244-0.049-0.612-0.123-1.527-0.042c-1.86,0.174-2.246,0.656-2.634,1.638
	c0.326-0.169,0.762-0.394,1.088-0.563c0.788-0.498,0.788-0.498,1.465-0.561c0.021,0.027,0.055,0.06,0.086,0.075
	c0.011-0.011,0.027-0.025,0.038-0.036c-0.025,0.129-0.034,0.184-0.066,0.492c1.137-0.045,2.244,0.299,3.381,0.253
	c0.098,0.368,0.169,0.635,0.361,0.757c0.357,0.227,0.779,0.097,1.157,0.208c-0.018,0.078-0.018,0.078-0.434,0.764
	c0.165-0.014,0.295-0.025,0.464-0.047c0.43-0.056,0.838-0.24,1.282-0.214C86.284,34.972,86.284,34.972,87.329,34.798L87.329,34.798z
	 M93.255,36.058L93.255,36.058c0.015-0.008,0.035-0.021,0.05-0.03c-0.118-0.252-0.162-0.347-0.202-0.374
	c-0.032-0.022-0.087-0.023-0.126-0.027c-0.11-0.012-0.348-0.067-0.704-0.3c-0.48-0.298-0.8-0.485-1.312-0.572
	c-0.045-0.008-0.107-0.012-0.153-0.011c-0.314,0.001-0.612,0.105-0.922,0.136c-0.32,0.032-0.614-0.138-0.932-0.119
	c-0.224,0.043-0.446,0.094-0.67,0.137c0.714,0.43,0.842,0.507,1.198,1.387c-0.632,0.031-1.261-0.062-1.893-0.048
	c0.014,0.122,0.029,0.243,0.043,0.365c0.27,0.047,1.031,0.131,2.251-0.095c0.083-0.015,0.083-0.015,0.116-0.012
	c0.035,0.2,0.174,0.329,0.602,0.64c0.225-0.688,0.225-0.688,0.277-0.716c0.171-0.092,1.186-0.284,1.57-0.28
	C93.095,36.146,93.095,36.146,93.255,36.058L93.255,36.058L93.255,36.058z M83.284,46.345L83.284,46.345
	c0-0.002-0.002-0.003-0.003-0.002c-0.001,0-0.002,0.001-0.001,0.002C83.28,46.345,83.282,46.345,83.284,46.345
	C83.284,46.345,83.284,46.345,83.284,46.345L83.284,46.345z M82.242,48.768L82.242,48.768
	C82.243,48.768,82.243,48.768,82.242,48.768c-0.004,0-0.008-0.001-0.012-0.001c0,0,0,0,0,0
	C82.23,48.768,82.233,48.769,82.242,48.768L82.242,48.768z M88.9,85.253L88.9,85.253c0.002-0.001,0.002-0.002,0.002-0.003
	c0,0-0.001,0-0.001,0c-0.012,0.003-0.011,0.004-0.01,0.005C88.891,85.255,88.897,85.255,88.9,85.253L88.9,85.253z M81.667,89.591
	c0.008-0.004,0.016-0.007,0.024-0.012l0,0c-0.004,0.001-0.048,0.022-0.05,0.023C81.65,89.6,81.658,89.595,81.667,89.591
	L81.667,89.591L81.667,89.591z M74.433,13.562L74.433,13.562c0.001-0.003-0.002-0.008-0.022-0.006
	c-0.007,0.001-0.015,0.002-0.025,0.005c0.01,0.028,0.042,0.013,0.047,0.004C74.432,13.563,74.433,13.562,74.433,13.562
	L74.433,13.562z M97.282,80.303c0.025-0.024,0.01-0.038-0.018-0.039c-0.004,0-0.01,0-0.015,0.001
	c-0.043,0.006-0.117,0.029-0.132,0.118C97.14,80.378,97.247,80.336,97.282,80.303L97.282,80.303z M91.717,45.649
	c0.035-0.427-0.506-0.788-0.766-0.962c-0.062,0.356-0.062,0.356-0.29,0.772c0.267,0.476,0.277,0.494,0.391,0.909
	C91.437,46.117,91.692,45.95,91.717,45.649z"/>
<path id="coordenadas" class="st4" d="M61.357,37.409c0.092,1.914,0.23,3.872,0.417,5.865c2.306,24.673,11.112,45.449,19.669,46.405
	c-8.753-0.932-17.717-21.689-20.023-46.362c-0.186-1.993-0.323-3.951-0.414-5.866c-17.628,2.14-28.662,4.432-28.714,5.792
	l0.016-0.372c0.063-1.358,11.083-3.647,28.682-5.783C60.09,16.684,64.549,1.27,71.788,0.341l0.043-0.005
	c-7.082,0.892-11.413,16.296-10.491,36.71c0.323-0.039,0.647-0.078,0.974-0.117c23.181-2.753,48.407-4.166,56.343-3.155
	c1.439,0.183,2.211,0.434,2.372,0.737c0.026,0.114,0.051,0.23,0.076,0.347c-0.177-0.298-0.947-0.544-2.367-0.724
	c-7.945-1.012-33.199,0.403-56.406,3.159C62.005,37.331,61.68,37.37,61.357,37.409z"/>
<g id="numero">
	<path class="st2" d="M36.177,23.912c0.047,0,0.094-0.024,0.14-0.071v-0.07h-0.35c-0.094,0-0.164,0.024-0.21,0.07h-0.21
		c0-0.139-0.118-0.209-0.351-0.209c-0.095,0-0.21-0.036-0.35-0.106c-0.142-0.071-0.258-0.106-0.35-0.106
		c-0.095,0-0.105,0.07-0.036,0.211c0.071,0.139,0.151,0.28,0.245,0.42c-0.047,0.047-0.07,0.104-0.07,0.175
		c0,0.069-0.047,0.13-0.139,0.175c-0.048,0.047-0.071,0.139-0.071,0.281c0,0.047,0.011,0.07,0.035,0.07
		c0.023,0,0.036,0.025,0.036,0.071v0.07c0.139,0,0.35-0.047,0.632-0.141l0.63-0.42l0.142-0.142l0.139-0.068
		C36.13,24.03,36.177,23.959,36.177,23.912L36.177,23.912z M32.952,25.735c0.047-0.094,0.094-0.163,0.14-0.21
		c0.047-0.046,0.094-0.116,0.141-0.21c0.047-0.094,0.094-0.164,0.14-0.211l-0.14,0.071c-0.047,0-0.071,0.012-0.071,0.035
		c0,0.024-0.023,0.035-0.07,0.035c-0.047,0.047-0.083,0.071-0.106,0.071c-0.024,0-0.059,0.023-0.104,0.069
		c-0.095,0.095-0.223,0.165-0.386,0.21c-0.164,0.047-0.294,0.118-0.386,0.21c0-0.092-0.07-0.186-0.21-0.28
		c-0.234-0.187-0.35-0.234-0.35-0.141c0,0.095-0.118,0.117-0.35,0.07c-0.095-0.046-0.141,0-0.141,0.141
		c0,0.047,0.046,0.21,0.141,0.492c-0.141,0-0.235,0.058-0.281,0.174c-0.047,0.117-0.164,0.223-0.35,0.316
		c-0.187,0.095-0.28,0.175-0.28,0.246c0,0.069,0.022,0.199,0.07,0.385c0,0.094,0.186,0.28,0.56,0.561l0.561,0.281
		c0.187,0,0.326-0.186,0.421-0.562c0.094-0.325,0.21-0.606,0.35-0.842c0.094-0.092,0.21-0.233,0.35-0.42
		C32.743,26.039,32.857,25.876,32.952,25.735L32.952,25.735z M30.498,28.751c-0.096,0.188-0.21,0.305-0.35,0.35
		c-0.142,0.047-0.188,0.165-0.142,0.351c0,0.187-0.023,0.329-0.069,0.421c-0.047,0.094-0.21,0.116-0.49,0.069
		c-0.047-0.046-0.096-0.069-0.142-0.069c-0.187,0-0.305-0.024-0.35-0.071c-0.327-0.186-0.467-0.325-0.42-0.42
		c0.046-0.141,0.059-0.234,0.035-0.281c-0.023-0.046,0.08-0.14,0.315-0.279c0.14-0.141,0.257-0.304,0.351-0.491
		c0.186-0.187,0.325-0.304,0.42-0.35c0.234-0.046,0.34-0.13,0.316-0.246c-0.023-0.116,0.059-0.058,0.246,0.175
		c0.185,0.234,0.316,0.397,0.384,0.491C30.672,28.494,30.637,28.61,30.498,28.751L30.498,28.751z M28.043,85.834
		c-0.187,0.046-0.14,0.116,0.141,0.21c0.046,0.047,0.163,0.07,0.35,0.07c0.046,0,0.094,0.024,0.141,0.071
		c0.373,0.046,0.736,0.035,1.086-0.035c0.35-0.071,0.641-0.13,0.876-0.175c0.234,0,0.537,0.023,0.912,0.069
		c0.373,0.047,0.677,0.07,0.911,0.07c0.094,0,0.234-0.011,0.421-0.035c0.186-0.023,0.397-0.059,0.631-0.104
		c0.233-0.048,0.467-0.083,0.701-0.106c0.233-0.024,0.467-0.06,0.701-0.106c0.467,0,0.795,0.024,0.983,0.071
		c0.185,0,0.349,0.011,0.49,0.035c0.14,0.023,0.304,0.011,0.491-0.035h0.911c0.234,0,0.585-0.047,1.053-0.141
		c0.512-0.094,0.841-0.164,0.982-0.21c0.139-0.047,0.396-0.118,0.772-0.211c0.185-0.047,0.36-0.082,0.525-0.104
		c0.164-0.024,0.361-0.06,0.595-0.106c0.468-0.094,0.866-0.14,1.193-0.14c0.373-0.094,0.807-0.129,1.296-0.104
		c0.492,0.023,0.924,0.011,1.299-0.035c0.327-0.048,0.689-0.082,1.086-0.106c0.397-0.024,0.736-0.105,1.017-0.246
		c0.281-0.094,0.246-0.129-0.104-0.104c-0.35,0.023-0.831,0.011-1.438-0.035H45.33h-0.423c-0.116,0-0.245,0.011-0.384,0.035
		c-0.14,0.023-0.352,0.035-0.631,0.035c-0.281,0.046-0.515,0.07-0.701,0.07c-0.187,0-0.397,0.024-0.633,0.071
		c-0.094,0-0.199,0.011-0.313,0.035c-0.118,0.023-0.246,0.035-0.388,0.035c-0.094,0-0.209,0.01-0.35,0.035
		c-0.139,0.024-0.304,0.036-0.491,0.036h-0.525c-0.211,0-0.456,0.023-0.737,0.069c-0.095,0-0.21,0.011-0.35,0.036
		c-0.14,0.022-0.281,0.035-0.42,0.035c-0.187,0.046-0.491,0.069-0.913,0.069c-0.281,0.047-0.572,0.082-0.876,0.104
		c-0.305,0.024-0.595,0.036-0.878,0.036c-0.28,0.046-0.55,0.069-0.806,0.069h-0.736h-0.666c-0.21,0-0.433,0.024-0.665,0.071
		c-0.235,0-0.445,0.011-0.633,0.035c-0.186,0.023-0.373,0.036-0.561,0.036c-0.796,0.139-1.379,0.185-1.752,0.139
		c-0.468-0.047-0.761-0.024-0.878,0.07c-0.118,0.094-0.316,0.163-0.596,0.21c-0.327,0-0.514,0.012-0.561,0.035
		C28.417,85.681,28.276,85.74,28.043,85.834L28.043,85.834z M28.394,31.276c0.094-0.094,0.186-0.211,0.281-0.352
		c0.093-0.139,0.093-0.326,0-0.56c-0.095-0.233-0.199-0.316-0.317-0.246c-0.116,0.071-0.361,0.152-0.736,0.246
		c-0.328,0.094-0.479,0.187-0.455,0.28c0.023,0.095-0.06,0.211-0.246,0.35c-0.187,0.142-0.293,0.282-0.316,0.421
		c-0.024,0.141-0.152,0.328-0.385,0.562c-0.094,0.094-0.199,0.234-0.317,0.42c-0.116,0.188-0.221,0.397-0.313,0.631
		c-0.095,0.094-0.152,0.211-0.177,0.35c-0.024,0.141-0.082,0.258-0.175,0.351c-0.094,0.095-0.164,0.175-0.21,0.246
		c-0.048,0.069-0.119,0.152-0.21,0.245c-0.328,0.234-0.48,0.55-0.457,0.947c0.024,0.397-0.059,0.642-0.245,0.736
		c-0.234,0.094-0.28,0.21-0.14,0.351c0.14,0.14,0.21,0.281,0.21,0.421c-0.048,0.141-0.06,0.234-0.036,0.28
		c0.023,0.047,0.082,0.164,0.175,0.35c0.141,0.141,0.326,0.211,0.562,0.211c0.046,0.047,0.14,0.071,0.28,0.071h0.071
		c0.234-0.095,0.339-0.235,0.316-0.421c-0.024-0.186-0.035-0.327-0.035-0.422c0-0.094,0.115-0.151,0.349-0.175
		c0.234-0.023,0.376-0.08,0.423-0.175c0.093-0.094,0.114-0.267,0.069-0.526c-0.048-0.257-0.048-0.479,0-0.666
		c0.093-0.186,0.233-0.268,0.42-0.246c0.186,0.025,0.327-0.035,0.421-0.174c0.186-0.234,0.302-0.468,0.349-0.702
		c0.095-0.234,0.118-0.396,0.071-0.49c-0.047-0.095-0.118-0.257-0.211-0.492c-0.094-0.233-0.116-0.444-0.068-0.63
		c0.046-0.186,0.093-0.375,0.139-0.562c0.094-0.141,0.246-0.257,0.458-0.35C28.149,31.462,28.3,31.37,28.394,31.276L28.394,31.276z
		 M24.607,38.568c-0.094,0.234-0.293,0.421-0.595,0.562c-0.305,0.139-0.621,0.305-0.947,0.49c-0.047,0.048-0.082-0.011-0.105-0.175
		c-0.023-0.162,0.036-0.361,0.176-0.596c0.14-0.233,0.163-0.36,0.07-0.385c-0.095-0.022-0.048-0.174,0.141-0.455
		c0.373-0.562,0.724-0.607,1.051-0.141c0.141,0.187,0.234,0.292,0.281,0.316C24.723,38.207,24.701,38.336,24.607,38.568
		L24.607,38.568z M16.612,85.763c-0.281,0-0.456,0.011-0.524,0.036c-0.071,0.023-0.036,0.035,0.104,0.035
		c1.403,0.092,2.828,0.198,4.277,0.316c1.449,0.115,2.758,0.151,3.928,0.105c0.561,0,0.958-0.012,1.193-0.036
		c0.232-0.024,0.408-0.047,0.524-0.069c0.116-0.024,0.198-0.047,0.246-0.071c0.045-0.023,0.186-0.059,0.42-0.104
		c0.421-0.141,0.352-0.211-0.21-0.211c-0.327-0.047-0.749-0.07-1.263-0.07h-1.963h-1.614c-0.328,0-0.538,0.023-0.633,0.07h-0.49
		h-1.263H16.612L16.612,85.763z M49.502,15.076c2.429-0.046,4.511,0.175,6.242,0.666c1.727,0.491,3.177,1.169,4.346,2.034
		c1.169,0.864,2.115,1.858,2.84,2.979c0.725,1.123,1.275,2.28,1.648,3.472c0.375,1.192,0.607,2.373,0.702,3.541
		c0.091,1.169,0.139,2.221,0.139,3.155c-0.048,2.524-0.76,5.203-2.139,8.029c-1.378,2.831-3.495,5.855-6.346,9.082
		c-2.852,3.225-6.476,6.697-10.87,10.413c-4.395,3.718-9.63,7.749-15.708,12.097c-1.263,0.889-2.841,1.964-4.733,3.225
		c-1.894,1.263-3.976,2.571-6.242,3.928c-2.269,1.355-4.641,2.676-7.118,3.961c-2.479,1.287-4.933,2.373-7.363,3.261
		c1.168,0.047,2.43,0.071,3.787,0.071c1.167,0,2.512,0.011,4.032,0.035c1.52,0.024,3.144,0.011,4.875-0.035
		c3.926-0.047,8.003-0.187,12.235-0.421c4.231-0.234,8.182-0.491,11.853-0.771c3.669-0.281,6.824-0.55,9.467-0.807
		c2.641-0.258,4.359-0.456,5.154-0.595c1.027-0.142,1.823-0.105,2.384,0.104c0.56,0.21,0.97,0.526,1.227,0.947
		c0.257,0.42,0.409,0.911,0.456,1.472c0.046,0.562,0.071,1.076,0.071,1.542c0,0.234-0.177,0.444-0.527,0.633
		c-0.35,0.186-0.831,0.35-1.438,0.491c-0.607,0.139-1.286,0.269-2.032,0.385c-0.749,0.117-1.521,0.221-2.314,0.316
		c-1.871,0.186-3.953,0.325-6.242,0.42c-9.772,0.654-18.28,0.947-25.526,0.876c-7.248-0.069-13.442-0.432-18.584-1.086
		c-0.14,0-0.235-0.024-0.281-0.071c-1.637-0.373-2.689-1.169-3.156-2.384c-0.234-0.468-0.256-0.958-0.07-1.473
		c0.093-0.234,0.186-0.467,0.28-0.701c0.607-0.328,1.672-0.959,3.191-1.893c1.52-0.936,3.32-2.059,5.401-3.367
		c2.08-1.309,4.384-2.769,6.908-4.383c2.524-1.613,5.118-3.307,7.784-5.083c2.664-1.776,5.328-3.588,7.994-5.435
		c2.665-1.846,5.176-3.635,7.537-5.364c2.361-1.73,4.512-3.378,6.452-4.944c1.94-1.565,3.494-2.955,4.664-4.172
		c3.038-3.085,5.528-6.077,7.47-8.976c1.938-2.899,3.307-5.563,4.103-7.994c0.093-0.233,0.232-0.899,0.419-1.999
		c0.186-1.098,0.235-2.324,0.141-3.681c-0.094-1.215-0.409-2.442-0.947-3.682c-0.537-1.239-1.437-2.302-2.7-3.191
		c-0.467-0.327-0.958-0.619-1.472-0.876c-0.515-0.257-1.098-0.48-1.753-0.666c-1.311-0.327-2.784-0.444-4.42-0.352
		c-1.636,0.095-3.425,0.538-5.364,1.332c-1.941,0.796-3.997,2.011-6.17,3.647c-2.175,1.637-4.453,3.811-6.838,6.522
		c-1.637,1.777-3.251,3.811-4.839,6.102c-0.749,0.982-1.473,2.011-2.174,3.085c-0.701,1.077-1.426,2.222-2.174,3.438
		c-0.935,1.682-1.707,2.781-2.314,3.295c-0.281,0.234-0.526,0.35-0.736,0.35c-0.211,0-0.374-0.21-0.491-0.631
		c-0.117-0.42-0.175-1.062-0.175-1.928c0-0.865,0.115-2.069,0.349-3.612c0.048-0.093,0.095-0.21,0.142-0.35
		c0.047-0.186,0.186-0.467,0.42-0.841c0.375-0.747,0.923-1.74,1.648-2.979c0.724-1.24,1.624-2.606,2.7-4.103
		c1.263-1.73,2.723-3.53,4.384-5.4c1.659-1.869,3.506-3.588,5.54-5.155c2.033-1.565,4.242-2.863,6.626-3.893
		C44.242,15.662,46.791,15.124,49.502,15.076z"/>
	<path class="st2" d="M116.311,7.867c0.271-0.054,0.489-0.123,0.652-0.204c0.165-0.082,0.219-0.123,0.165-0.123
		c-0.111-0.053-0.233-0.095-0.369-0.123c-0.136-0.027-0.286-0.095-0.448-0.204c0.108-0.163,0.053-0.299-0.164-0.408
		c-0.054-0.054-0.136-0.163-0.244-0.327c-0.056-0.053-0.096-0.108-0.122-0.163c-0.029-0.053-0.07-0.108-0.124-0.163
		c-0.054-0.054-0.095,0-0.121,0.163c-0.029,0.163-0.041,0.355-0.041,0.571c-0.109,0.054-0.163,0.109-0.163,0.163
		c0,0.054-0.054,0.081-0.163,0.081c-0.109,0-0.163,0.028-0.163,0.082c0,0.055-0.028,0.109-0.082,0.163
		c-0.054,0.055-0.083,0.111-0.083,0.163c0.109,0.109,0.328,0.217,0.654,0.326h0.408H116.311L116.311,7.867z M110.762,63.025
		c0,0.054,0.027,0.082,0.082,0.082c0.108,0.217,0.216,0.38,0.326,0.49c0.054,0.109,0.108,0.177,0.165,0.204
		c0.051,0.028,0.107,0.096,0.161,0.204l0.083,0.162c0.054,0.055,0.082,0.163,0.082,0.328c0,0.109,0.013,0.191,0.039,0.244
		c0.029,0.055,0.042,0.137,0.042,0.245c0.162,0.163,0.298,0.326,0.408,0.49c0.053,0.109,0.19,0.327,0.408,0.653
		c0.108,0.218,0.134,0.395,0.08,0.53c-0.054,0.137-0.054,0.341,0,0.611c0.109,0.218,0.163,0.382,0.163,0.491l0.164,0.57
		c0.054,0.11,0.094,0.191,0.121,0.245c0.028,0.055,0.068,0.136,0.122,0.245c0,0.055,0.028,0.109,0.082,0.163
		c0.054,0.055,0.108,0.135,0.164,0.245c0.108,0.218,0.162,0.436,0.162,0.653c0.054,0.109,0.081,0.219,0.081,0.327
		c0,0.109,0.028,0.217,0.083,0.327v0.408c0,0.054-0.014,0.109-0.042,0.163c-0.028,0.055-0.041,0.135-0.041,0.245
		c-0.11,0.325-0.163,0.544-0.163,0.653c0,0.217-0.028,0.436-0.081,0.652c-0.056,0.217-0.028,0.436,0.081,0.653
		c0.109,0.217,0.176,0.217,0.204,0c0.028-0.217,0.124-0.516,0.286-0.897c0.109-0.217,0.163-0.436,0.163-0.653v-0.246
		c0-0.108,0.026-0.216,0.083-0.327v-0.408v-0.408c-0.056-0.162-0.083-0.46-0.083-0.897v-0.408V68.9
		c-0.054-0.053-0.082-0.136-0.082-0.244c0-0.109-0.014-0.191-0.04-0.246c-0.029-0.053-0.042-0.134-0.042-0.245
		c0-0.054-0.014-0.095-0.039-0.121c-0.029-0.028-0.042-0.068-0.042-0.124c0-0.108-0.028-0.19-0.08-0.245v-0.244l-0.082-0.164v-0.08
		c-0.111-0.217-0.164-0.379-0.164-0.49c0-0.054-0.015-0.083-0.04-0.083c-0.029,0-0.042-0.025-0.042-0.08v-0.082
		c0-0.053-0.013-0.095-0.041-0.123c-0.028-0.027-0.04-0.068-0.04-0.123c-0.056-0.108-0.082-0.191-0.082-0.245
		c0-0.054-0.029-0.108-0.083-0.163c0-0.163-0.028-0.298-0.082-0.408c-0.054-0.108-0.109-0.217-0.163-0.326
		c-0.109-0.108-0.176-0.216-0.204-0.327c-0.027-0.108-0.095-0.216-0.204-0.327c-0.054-0.107-0.108-0.19-0.162-0.245
		c-0.055-0.053-0.111-0.134-0.165-0.245c-0.109-0.216-0.19-0.353-0.244-0.408c-0.055-0.162-0.135-0.298-0.245-0.407
		c-0.163-0.108-0.274-0.191-0.328-0.246c-0.161-0.053-0.244-0.135-0.244-0.244c-0.11,0-0.192-0.026-0.245-0.081
		c-0.163-0.054-0.245,0.028-0.245,0.245V63.025L110.762,63.025z M113.129,7.214c0.108-0.054,0.175-0.082,0.204-0.082
		c0.027,0,0.095-0.028,0.203-0.081c0.053,0,0.135-0.027,0.246-0.082h-0.164c-0.054,0-0.109-0.013-0.162-0.041
		c-0.056-0.028-0.11-0.041-0.164-0.041c-0.436-0.108-0.707-0.216-0.815-0.327V6.153c-0.055-0.325-0.111-0.461-0.165-0.408
		c-0.054,0.055-0.135-0.026-0.244-0.245c-0.11-0.108-0.191-0.094-0.245,0.042c-0.055,0.136-0.109,0.313-0.163,0.529
		c-0.111-0.108-0.232-0.134-0.368-0.081c-0.136,0.054-0.285,0.028-0.448-0.083c-0.217-0.053-0.408,0.055-0.571,0.328
		c-0.054,0.054-0.082,0.354-0.082,0.897c0,0.109,0.013,0.191,0.042,0.245c0.025,0.055,0.04,0.137,0.04,0.245
		c0,0.109,0.028,0.191,0.082,0.245c0.164,0.218,0.408,0.204,0.733-0.041c0.328-0.245,0.627-0.394,0.898-0.449
		C112.202,7.377,112.584,7.323,113.129,7.214L113.129,7.214z M109.702,6.642c0.053-0.326,0.027-0.449-0.082-0.367
		c-0.11,0.081-0.245,0.068-0.408-0.04c-0.165-0.109-0.315-0.137-0.449-0.083c-0.137,0.055-0.341,0.029-0.613-0.082
		c-0.272-0.053-0.422-0.067-0.448-0.04c-0.028,0.028-0.096,0.095-0.204,0.204c-0.164,0.054-0.192,0.271-0.082,0.652
		c0.054,0.217,0.108,0.408,0.164,0.571c0.27,0.382,0.515,0.408,0.734,0.082c0.108-0.108,0.23-0.136,0.367-0.082
		c0.134,0.055,0.312,0.082,0.531,0.082c0.163,0,0.258-0.067,0.285-0.204C109.525,7.2,109.592,6.969,109.702,6.642L109.702,6.642z
		 M106.357,57.884c-0.164-0.108-0.274-0.163-0.327-0.163c-0.055,0-0.029,0.029,0.081,0.083c0.326,0.273,0.625,0.557,0.898,0.856
		c0.272,0.299,0.544,0.586,0.816,0.857c0.271,0.273,0.53,0.558,0.775,0.856c0.244,0.3,0.502,0.559,0.775,0.777
		c0.216,0.271,0.366,0.449,0.449,0.529c0.082,0.082,0.149,0.15,0.204,0.204c0.054,0.055,0.106,0.07,0.162,0.041
		c0.053-0.026,0.135,0.015,0.245,0.123c0.216,0.163,0.245,0.082,0.083-0.244c-0.056-0.109-0.096-0.217-0.124-0.328
		c-0.028-0.108-0.095-0.217-0.204-0.325c-0.108-0.054-0.217-0.191-0.327-0.408l-0.489-0.49l-0.328-0.326
		c-0.163-0.165-0.271-0.245-0.325-0.245c-0.11-0.163-0.191-0.245-0.245-0.245c-0.109-0.054-0.204-0.109-0.286-0.163
		c-0.082-0.054-0.258-0.216-0.53-0.49c-0.274-0.273-0.531-0.462-0.775-0.571C106.641,58.103,106.465,57.995,106.357,57.884
		L106.357,57.884z M106.845,7.051c0.109-0.272,0.095-0.435-0.041-0.49c-0.136-0.054-0.34-0.217-0.612-0.49
		c-0.272-0.271-0.436-0.367-0.49-0.284c-0.054,0.08-0.19,0.068-0.408-0.042c-0.217-0.053-0.408-0.041-0.57,0.042
		c-0.163,0.08-0.382,0.068-0.653-0.042c-0.109-0.053-0.273-0.067-0.49-0.041c-0.218,0.029-0.462,0.07-0.735,0.124
		c-0.271,0.054-0.518,0.095-0.734,0.121c-0.218,0.029-0.436-0.012-0.653-0.121c-0.38-0.165-0.721-0.109-1.02,0.163
		c-0.3,0.273-0.559,0.326-0.774,0.162c-0.164-0.108-0.273-0.067-0.328,0.122c-0.055,0.192-0.137,0.341-0.245,0.449
		C98.931,6.779,98.85,6.82,98.85,6.846c0,0.029-0.056,0.15-0.164,0.367c-0.109,0.163-0.109,0.381,0,0.653
		c0.054,0.163,0.108,0.299,0.164,0.408c0.162,0.163,0.312,0.191,0.448,0.08c0.136-0.108,0.258-0.19,0.368-0.244
		c0.108-0.109,0.229-0.054,0.366,0.163c0.136,0.217,0.257,0.325,0.367,0.325c0.108,0,0.272-0.08,0.49-0.245
		c0.216-0.163,0.408-0.27,0.571-0.325c0.217-0.108,0.367-0.054,0.449,0.162c0.082,0.218,0.204,0.328,0.367,0.328
		c0.27,0.054,0.543,0.028,0.815-0.082c0.217-0.108,0.367-0.217,0.449-0.327c0.083-0.109,0.176-0.271,0.287-0.49
		c0.161-0.217,0.325-0.353,0.489-0.408c0.163-0.054,0.326-0.134,0.49-0.245c0.163-0.054,0.353,0,0.571,0.163
		c0.216,0.163,0.379,0.245,0.49,0.245c0.163,0.055,0.325,0.082,0.49,0.082C106.519,7.459,106.683,7.323,106.845,7.051L106.845,7.051
		z M98.196,7.622c0.164-0.653-0.081-0.98-0.734-0.98c-0.326,0-0.476,0.041-0.448,0.122c0.025,0.082-0.096,0.123-0.369,0.123
		c-0.271,0-0.463,0.041-0.57,0.123c-0.111,0.081-0.138,0.15-0.083,0.204c0.273,0.274,0.543,0.529,0.818,0.775
		c0.27,0.245,0.541,0.341,0.816,0.286c0.27-0.109,0.407-0.177,0.407-0.204C98.033,8.043,98.086,7.894,98.196,7.622L98.196,7.622z
		 M134.833,2.726c-0.763,0.925-1.727,1.727-2.895,2.408c-1.172,0.681-2.382,1.238-3.633,1.672c-1.36,0.49-2.666,0.886-3.917,1.183
		c-1.252,0.3-2.284,0.503-3.1,0.611c-0.326,0.055-0.666,0.096-1.019,0.123c-0.355,0.028-0.694,0.068-1.02,0.121
		c-4.733,0.545-9.82,0.79-15.26,0.736c-1.904,0-3.862-0.054-5.874-0.164c-2.013-0.108-4.081-0.272-6.201-0.489
		c-3.536,4.95-7.332,10.131-11.384,15.543c-4.052,5.414-8.255,11.275-12.606,17.583c0.491,0.111,1.074,0.233,1.754,0.369
		c0.681,0.136,1.36,0.284,2.042,0.449c0.679,0.163,1.347,0.313,1.999,0.448c0.653,0.137,1.223,0.259,1.713,0.369
		c1.522,0.381,2.964,0.748,4.325,1.101c1.359,0.356,2.665,0.749,3.917,1.184c2.611,0.816,4.949,1.631,7.016,2.447
		c2.068,0.816,3.836,1.55,5.304,2.202c1.687,0.763,3.183,1.497,4.488,2.204c2.284,1.197,4.434,2.503,6.446,3.917
		c0.436,0.273,0.869,0.585,1.306,0.938c0.435,0.355,0.844,0.694,1.223,1.02c0.328,0.273,0.762,0.707,1.306,1.305
		c0.544,0.6,1.102,1.335,1.673,2.204c0.57,0.87,1.088,1.85,1.551,2.937c0.461,1.089,0.774,2.259,0.937,3.51
		c0.325,2.175,0.026,4.352-0.898,6.526c-1.142,2.612-3.046,5.06-5.711,7.344c-2.666,2.286-6.501,4.107-11.504,5.468
		c-1.035,0.27-2.096,0.516-3.184,0.734c-1.089,0.217-2.231,0.408-3.427,0.571c-5.873,0.816-11.37,0.883-16.482,0.204
		c-5.113-0.681-9.848-1.85-14.199-3.509c-4.351-1.66-8.351-3.7-11.994-6.119c-3.646-2.421-6.909-4.965-9.791-7.629
		c-0.924-0.98-1.864-2.026-2.815-3.141c-0.953-1.114-1.823-2.257-2.611-3.427c-0.79-1.169-1.468-2.325-2.041-3.468
		c-0.57-1.143-0.965-2.204-1.184-3.182c-0.162-0.761-0.19-1.319-0.08-1.672c0.108-0.353,0.299-0.612,0.57-0.775l0.328-0.165
		c0.434,0.055,0.91,0.341,1.427,0.857c0.518,0.519,0.911,0.912,1.182,1.184c1.797,2.121,3.701,4.298,5.713,6.527
		c2.012,2.231,4.189,4.393,6.529,6.487c2.337,2.095,4.854,4.067,7.547,5.916c2.692,1.849,5.602,3.468,8.73,4.854
		c3.128,1.388,6.488,2.474,10.078,3.265c3.59,0.787,7.452,1.155,11.586,1.101c6.474-0.109,11.764-1.048,15.871-2.815
		c4.106-1.769,7.084-4.202,8.934-7.303c0.924-1.741,1.374-3.331,1.346-4.774c-0.028-1.44-0.095-2.379-0.204-2.815
		c-0.436-1.685-1.467-3.657-3.099-5.915c-1.633-2.257-4.379-4.529-8.242-6.813c-2.068-1.197-4.434-2.312-7.099-3.345
		c-2.666-1.032-5.373-1.972-8.119-2.816c-2.748-0.842-5.399-1.59-7.956-2.243c-2.557-0.653-4.732-1.196-6.526-1.632
		c-1.034-0.38-1.796-0.829-2.286-1.347c-0.49-0.516-0.802-1.033-0.939-1.55c-0.136-0.518-0.162-1.02-0.082-1.51
		c0.082-0.49,0.177-0.87,0.286-1.142c2.775-4.787,5.847-9.928,9.221-15.422c3.372-5.494,7.017-11.205,10.934-17.135h0.082
		c0.109-0.163,0.366-0.49,0.774-0.979c0.408-0.49,0.939-0.992,1.592-1.509c0.652-0.517,1.388-0.98,2.202-1.388
		c0.816-0.408,1.687-0.585,2.611-0.53c0.598,0.055,1.196,0.096,1.796,0.123c0.598,0.029,1.195,0.04,1.795,0.04
		c1.742,0.11,3.522,0.178,5.345,0.204c1.821,0.028,3.685,0.013,5.589-0.041c1.741-0.054,3.44-0.135,5.1-0.245
		c1.659-0.109,3.251-0.245,4.772-0.408c1.577-0.108,3.223-0.245,4.937-0.407c1.713-0.164,3.345-0.313,4.896-0.45
		c1.551-0.134,2.937-0.257,4.162-0.366c1.223-0.109,2.134-0.19,2.732-0.245c0.654-0.054,1.116-0.054,1.388,0
		c0.273,0.055,0.462,0.135,0.573,0.245c0.108,0.163,0.08,0.325-0.083,0.489L134.833,2.726z"/>
</g>
</svg>
